<?xml version="1.0" encoding="iso-8859-1"?>
<!-- Generator: Adobe Illustrator 19.0.0, SVG Export Plug-In . SVG Version: 6.00 Build 0)  -->
<svg xmlns="http://www.w3.org/2000/svg" xmlns:xlink="http://www.w3.org/1999/xlink" version="1.1" id="Capa_1" x="0px" y="0px" viewBox="0 0 496 496" style="enable-background:new 0 0 496 496;" xml:space="preserve" width="512px" height="512px">
<g>
	<g>
		<g>
			<path d="M472.808,352.336c2.872-4.8,4.632-10.344,4.632-16.336c0-17.648-14.352-32-32-32c-4.896,0-9.608,1.232-13.928,3.336     c-3.72-6.104-9.008-11.064-15.328-14.448c4.456-5.632,10.12-10.368,16.832-13.728l-7.16-14.312     c-10.904,5.448-19.744,13.608-26.016,23.4c-0.808-0.056-1.576-0.248-2.4-0.248c-2.968,0-5.848,0.376-8.632,1     c-3.032-20.52-18.976-36.896-39.368-40.328V216v-98.84c10.336-12.808,16-28.72,16-45.16c0-39.696-32.296-72-72-72     c-16.04,0-31.416,5.312-44,15.072C236.856,5.312,221.48,0,205.44,0s-31.416,5.312-44,15.072C148.856,5.312,133.48,0,117.44,0     c-39.704,0-72,32.304-72,72c0,16.44,5.664,32.352,16,45.16V216v32.664c-22.672,3.824-40,23.592-40,47.336     c0,14.528,6.48,27.936,17.608,37c-1.072,3.608-1.608,7.288-1.608,11c0,11.536,5.096,22.384,13.568,29.904     c-9.936,10.632-17.616,23.432-22.08,37.704L2.56,496h298.88h8h184v-72v-24v-24C493.44,363.92,484.44,353.992,472.808,352.336z      M437.44,328c0-1.88-0.304-3.68-0.552-5.496c2.536-1.616,5.496-2.504,8.552-2.504c8.824,0,16,7.176,16,16c0,8.824-7.176,16-16,16     h-16.208C434.312,345.296,437.44,337.04,437.44,328z M392.32,304.576c-1.848,6.12-2.88,12.56-2.88,19.2V328h16v-4.224     c0-5.92,1.136-11.608,3.056-16.952c7.656,4.016,12.944,11.952,12.944,21.176c0,13.232-10.768,24-24,24s-24-10.768-24-24     C373.44,316.528,381.544,306.928,392.32,304.576z M117.44,16c14.352,0,28.016,5.472,38.496,15.408l5.504,5.224l5.504-5.224     C177.424,21.472,191.088,16,205.44,16s28.016,5.472,38.496,15.408l5.504,5.224l5.504-5.224C265.424,21.472,279.088,16,293.44,16     c30.872,0,56,25.12,56,56c0,13.568-4.976,26.688-14.008,36.952l-1.992,2.264V120h-256v-8.784l-1.992-2.264     C66.416,98.688,61.44,85.568,61.44,72C61.44,41.12,86.568,16,117.44,16z M317.44,176.816V160h-224v16.808     c-5.944,1.216-11.328,3.856-16,7.392V136h256v48.208C328.768,180.672,323.384,178.024,317.44,176.816z M333.44,216     c0,10.536-6.872,19.416-16.336,22.632c0.128-2.208,0.336-4.392,0.336-6.632v-38.528C326.728,196.784,333.44,205.584,333.44,216z      M205.44,328c-52.936,0-96-43.064-96-96v-56h28.104c-2.544,3.352-4.104,7.48-4.104,12c0,11.024,8.968,20,20,20s20-8.976,20-20     c0-4.52-1.56-8.648-4.104-12h72.2c-2.536,3.352-4.096,7.48-4.096,12c0,11.024,8.968,20,20,20c11.032,0,20-8.976,20-20     c0-4.52-1.56-8.648-4.104-12h28.104v56C301.44,284.936,258.376,328,205.44,328z M245.44,336.488v6.344     C244.064,347,235.656,368,205.44,368c-30.208,0-38.6-20.904-40-25.168v-6.344c12.44,4.784,25.896,7.512,40,7.512     S233,341.272,245.44,336.488z M149.44,188c0-2.208,1.8-4,4-4s4,1.792,4,4s-1.8,4-4,4S149.44,190.208,149.44,188z M253.44,188     c0-2.208,1.8-4,4-4s4,1.792,4,4s-1.8,4-4,4S253.44,190.208,253.44,188z M93.776,238.632C84.312,235.416,77.44,226.536,77.44,216     c0-10.416,6.712-19.216,16-22.528V232C93.44,234.24,93.648,236.424,93.776,238.632z M37.44,296c0-17.648,14.352-32,32-32h8     v-16.208c5.312,4.024,11.608,6.688,18.512,7.648c6.704,31.328,26.568,57.776,53.488,73.4v8.288l-41.312,6.352     c-16.664,2.56-32.104,9.44-45.088,19.448c-5.896-4.496-9.6-11.416-9.6-18.928c0-3.496,0.84-7,2.504-10.424l3.184-6.544     l-6.224-3.784C43.224,317.344,37.44,307.16,37.44,296z M301.44,376v8v12v84h-152v-16h-16v16h-30.936l6.872-55.008l-15.872-1.984     L86.376,480H24.32l19.872-63.624c9.352-29.904,35.4-52.312,66.368-57.072l41.64-6.408c3.68,7.864,10.864,17.096,22.264,23.472     L133.44,403.72V448h16v-35.712l43.992-29.328c3.744,0.624,7.696,1.04,12.008,1.04c30.816,0,46.944-17.664,53.232-31.104     l16.912,2.6C269.832,368.704,251.36,400,205.44,400v16c59.24,0,81.12-44.696,86.328-58.008l8.544,1.312     c2.272,0.352,4.472,0.976,6.696,1.512C303.584,364.968,301.44,370.208,301.44,376z M302.752,343.488l-41.312-6.352v-8.288     c26.92-15.624,46.784-42.072,53.488-73.4c6.904-0.96,13.2-3.632,18.512-7.648V264h8c17.648,0,32,14.352,32,32     c0,0.072-0.024,0.144-0.024,0.224c-4.016,3.048-7.416,6.792-10.048,11.112c-4.32-2.104-9.032-3.336-13.928-3.336     c-17.648,0-32,14.352-32,32c0,4.152,0.856,8.088,2.296,11.728C314.216,345.84,308.544,344.376,302.752,343.488z M365.648,352     H349.44c-8.824,0-16-7.176-16-16c0-8.824,7.176-16,16-16c3.056,0,6.008,0.888,8.552,2.504c-0.248,1.816-0.552,3.616-0.552,5.496     C357.44,337.04,360.568,345.296,365.648,352z M477.44,400v24c0,4.408-3.584,8-8,8c-4.416,0-8-3.592-8-8v-20     c0-11.024-8.968-20-20-20c-11.032,0-20,8.976-20,20v12c0,4.408-3.584,8-8,8c-4.416,0-8-3.592-8-8c0-13.232-10.768-24-24-24     s-24,10.768-24,24v8h16v-8c0-4.408,3.584-8,8-8c4.416,0,8,3.592,8,8c0,13.232,10.768,24,24,24s24-10.768,24-24v-12     c0-2.208,1.8-4,4-4s4,1.792,4,4v20c0,13.232,10.768,24,24,24c2.816,0,5.488-0.576,8-1.472V480h-160v-64.408     c1.296,0.264,2.632,0.408,4,0.408c2.2,0,4,1.792,4,4v28c0,13.232,10.768,24,24,24s24-10.768,24-24v-8h-16v8c0,4.408-3.584,8-8,8     c-4.416,0-8-3.592-8-8v-28c0-11.024-8.968-20-20-20c-2.2,0-4-1.792-4-4v-12v-8c0-4.408,3.584-8,8-8h144c4.416,0,8,3.592,8,8V400z     " fill="#48cfc7"/>
			<path d="M205.44,280c-26.472,0-48-21.528-48-48h-16c0,35.288,28.712,64,64,64c35.288,0,64-28.712,64-64h-16     C253.44,258.472,231.912,280,205.44,280z" fill="#48cfc7"/>
			<rect x="165.44" y="416" width="16" height="16" fill="#48cfc7"/>
			<rect x="165.44" y="448" width="16" height="16" fill="#48cfc7"/>
		</g>
	</g>
</g>
<g>
</g>
<g>
</g>
<g>
</g>
<g>
</g>
<g>
</g>
<g>
</g>
<g>
</g>
<g>
</g>
<g>
</g>
<g>
</g>
<g>
</g>
<g>
</g>
<g>
</g>
<g>
</g>
<g>
</g>
</svg>
