<?xml version="1.0" encoding="iso-8859-1"?>
<!-- Generator: Adobe Illustrator 18.0.0, SVG Export Plug-In . SVG Version: 6.00 Build 0)  -->
<!DOCTYPE svg PUBLIC "-//W3C//DTD SVG 1.1//EN" "http://www.w3.org/Graphics/SVG/1.1/DTD/svg11.dtd">
<svg xmlns="http://www.w3.org/2000/svg" xmlns:xlink="http://www.w3.org/1999/xlink" version="1.1" id="Capa_1" x="0px" y="0px" viewBox="0 0 323.218 323.218" style="enable-background:new 0 0 323.218 323.218;" xml:space="preserve" width="512px" height="512px">
<g>
	<path d="M145.023,84.732c12.81,0,23.219-10.254,23.484-23h-46.968C121.804,74.479,132.213,84.732,145.023,84.732z" fill="#48cfc7"/>
	<path d="M112.03,38.347c2.637,2.016,5.921,3.227,9.496,3.227v10.662h46.993V41.574c3.575,0,6.86-1.211,9.496-3.227   c3.745-2.863,6.171-7.363,6.171-12.44c0-8.653-7.014-15.667-15.667-15.667c-3.1,0-5.982,0.912-8.415,2.466   C158.72,5.47,152.366,0,144.726,0c-7.525,0-13.806,5.308-15.316,12.383c-2.318-1.354-5.006-2.143-7.884-2.143   c-8.653,0-15.667,7.014-15.667,15.667C105.859,30.984,108.286,35.484,112.03,38.347z" fill="#48cfc7"/>
	<path d="M284.245,119.249c-0.215-0.214-0.51-0.337-0.813-0.337c-0.305,0.001-0.595,0.12-0.812,0.338   c-2.338,2.335-5.429,3.614-8.715,3.614c-3.288,0-6.379-1.28-8.705-3.606c-0.22-0.22-0.512-0.341-0.822-0.341   c-0.31,0-0.602,0.121-0.823,0.342c-2.323,2.324-5.415,3.605-8.704,3.605h0h0c-3.29,0-6.381-1.281-8.704-3.605   c-0.221-0.22-0.513-0.342-0.823-0.342c-0.31,0-0.602,0.121-0.822,0.341c-2.326,2.325-5.418,3.606-8.705,3.606   c-3.286,0-6.377-1.279-8.715-3.614c-0.218-0.218-0.508-0.337-0.813-0.338c-0.302,0-0.598,0.123-0.812,0.337   c-2.328,2.328-5.423,3.61-8.715,3.61c-0.63,0-1.253-0.048-1.865-0.14l2.544,6.227c0.597,1.46,1.685,2.61,3.02,3.321l-18.184,8.06   l0.09-21.305c0-0.035,0-0.07,0-0.104c-0.074-14.721-12.109-26.695-26.829-26.695h-16.963l-23.836,16.013l-1.696,1.139   c0,11.028,0,69.566,0,82.426c0,2.505-2.03,4.535-4.535,4.535s-4.535-2.03-4.535-4.535c0-9.248,0-75.388,0-84.843   c0-1.511,0.752-2.922,2.007-3.765c0.87-0.584,15.391-10.34,16.33-10.971h-27.755c-14.72,0-26.755,11.975-26.829,26.695   l-0.092,18.256L65.479,123.06c-1.836-1.171-3.881-1.735-5.91-1.766c-1.18-3.21-2.198-6.498-3.026-9.829   c2.035-6.587,7.499-25.731,4.972-33.835C58.259,67.2,47.133,61.358,36.695,64.603c-0.005,0.001-0.009,0.001-0.014,0.003   c-0.004,0.001-0.007,0.003-0.011,0.005c-10.425,3.26-16.264,14.394-13.013,24.825v0.002c2.531,8.112,17.94,20.772,23.345,25.022   c1.379,3.652,2.53,7.386,3.444,11.19c-3.756,4.831-3.535,12.461,3.578,16.998l2.793,13.445c0.989,4.662,5.728,7.468,10.295,6.055   c3.341-1.044,5.588-4.113,5.653-7.548l19.983,12.745c3.434,2.19,7.846,2.398,11.521,0.396c3.626-1.977,5.891-5.769,5.911-9.898   l0.195-38.81c0.011-2.067,1.548-4.136,4.498-4.136l0.006,194.718c0,7.514,6.091,13.605,13.604,13.605   c7.514,0,13.605-6.091,13.605-13.605V203.807c0-1.622,1.315-2.937,2.937-2.937c1.622,0,2.937,1.315,2.937,2.937v105.807   c0,7.514,6.091,13.605,13.605,13.605c7.514,0,13.604-6.091,13.604-13.605l-0.247-194.718c3.222,0,4.717,2.007,4.745,4.1   l-0.163,38.741c-0.017,3.844,1.916,7.435,5.134,9.538c3.224,2.106,7.288,2.429,10.797,0.875l44.04-19.519   c5.725-2.537,8.309-9.234,5.771-14.959c-0.094-0.213-0.206-0.413-0.312-0.618h9.913h31.314c2.684,0,5.102-1.624,6.117-4.109   l2.544-6.227c-0.612,0.092-1.235,0.14-1.865,0.14C289.668,122.859,286.573,121.577,284.245,119.249z M51.968,80.608   c0.634,2.034,0.088,6.941-1.082,12.739l-6.04-19.362C48.108,74.764,50.898,77.182,51.968,80.608z M33.205,86.46   c-1.068-3.428-0.148-7.002,2.093-9.498l6.042,19.367C37.082,92.226,33.842,88.498,33.205,86.46z M144.726,125.098   c-2.504,0-4.535-2.03-4.535-4.535c0-2.505,2.031-4.535,4.535-4.535c2.505,0,4.535,2.03,4.535,4.535   C149.261,123.067,147.231,125.098,144.726,125.098z M149.261,151.551c0,2.504-2.03,4.535-4.535,4.535   c-2.504,0-4.535-2.03-4.535-4.535c0-2.505,2.031-4.535,4.535-4.535C147.231,147.016,149.261,149.046,149.261,151.551z    M144.726,187.074c-2.504,0-4.535-2.03-4.535-4.535c0-2.505,2.031-4.535,4.535-4.535c2.505,0,4.535,2.03,4.535,4.535   C149.261,185.044,147.231,187.074,144.726,187.074z M163.773,147.016c2.505,0,4.535,2.03,4.535,4.535   c0,2.504-2.03,4.535-4.535,4.535c-2.505,0-4.535-2.03-4.535-4.535C159.238,149.046,161.268,147.016,163.773,147.016z    M159.238,120.563c0-2.505,2.03-4.535,4.535-4.535c2.505,0,4.535,2.03,4.535,4.535c0,2.504-2.03,4.535-4.535,4.535   C161.268,125.098,159.238,123.067,159.238,120.563z M163.773,178.004c2.505,0,4.535,2.03,4.535,4.535   c0,2.505-2.03,4.535-4.535,4.535c-2.505,0-4.535-2.03-4.535-4.535C159.238,180.035,161.268,178.004,163.773,178.004z" fill="#48cfc7"/>
	<path d="M298.063,98.163c-4.863-8.171-12.877-12.834-18.803-15.419c-5.109-2.229-16.749-5.16-24.182-5.16   c-0.076,0-0.152,0.003-0.228,0.003c-0.076,0-0.152-0.003-0.228-0.003c-7.433,0-19.073,2.931-24.182,5.16   c-5.925,2.586-13.939,7.249-18.802,15.419c-2.781,4.672-3.655,10.157,0.189,14.002l0.142,0.142   c1.317,1.318,3.045,1.976,4.772,1.976s3.455-0.659,4.772-1.976c1.261-1.261,2.972-1.97,4.755-1.97   c1.784,0.001,3.494,0.709,4.755,1.97l0.008,0.009c1.265,1.263,2.977,1.973,4.764,1.973c1.786,0,3.499-0.71,4.764-1.974   c1.264-1.263,2.976-1.973,4.763-1.973c1.786,0,3.499,0.709,4.764,1.974c1.315,1.315,3.039,1.973,4.763,1.973h0h0   c1.724,0,3.448-0.658,4.763-1.973c1.265-1.264,2.978-1.974,4.764-1.974c1.787,0,3.5,0.71,4.763,1.973   c1.264,1.263,2.978,1.974,4.764,1.974c1.787,0,3.499-0.71,4.764-1.973l0.008-0.009c1.262-1.261,2.971-1.97,4.755-1.97   c1.784,0,3.495,0.709,4.756,1.97c1.318,1.318,3.045,1.976,4.772,1.976s3.454-0.659,4.772-1.976l0.142-0.142   C301.718,108.32,300.844,102.835,298.063,98.163z M240.266,93.035c-1.437,1.437-3.767,1.437-5.204,0   c-1.437-1.437-1.437-3.768,0-5.204c1.437-1.437,7.467-5.137,8.904-3.7C245.402,85.568,241.703,91.598,240.266,93.035z    M254.85,98.86c-2.032,0-3.68-1.648-3.68-3.68c0-2.032,1.648-8.912,3.68-8.912c2.032,0,3.68,6.88,3.68,8.912   C258.53,97.212,256.883,98.86,254.85,98.86z M274.639,93.035c-1.437,1.437-3.768,1.437-5.204,0   c-1.437-1.437-5.137-7.467-3.699-8.904c1.437-1.437,7.467,2.263,8.904,3.7C276.076,89.268,276.076,91.598,274.639,93.035z" fill="#48cfc7"/>
</g>
<g>
</g>
<g>
</g>
<g>
</g>
<g>
</g>
<g>
</g>
<g>
</g>
<g>
</g>
<g>
</g>
<g>
</g>
<g>
</g>
<g>
</g>
<g>
</g>
<g>
</g>
<g>
</g>
<g>
</g>
</svg>
