<?xml version="1.0" encoding="iso-8859-1"?>
<!-- Generator: Adobe Illustrator 19.0.0, SVG Export Plug-In . SVG Version: 6.00 Build 0)  -->
<svg xmlns="http://www.w3.org/2000/svg" xmlns:xlink="http://www.w3.org/1999/xlink" version="1.1" id="Capa_1" x="0px" y="0px" viewBox="0 0 512 512" style="enable-background:new 0 0 512 512;" xml:space="preserve" width="512px" height="512px">
<g>
	<g>
		<path d="M264.537,247.467H247.47c-4.713,0-8.533,3.82-8.533,8.533s3.82,8.533,8.533,8.533h17.067c4.713,0,8.533-3.82,8.533-8.533    S269.249,247.467,264.537,247.467z" fill="#48cfc7"/>
	</g>
</g>
<g>
	<g>
		<path d="M230.403,187.733H196.27c-4.713,0-8.533,3.82-8.533,8.533s3.82,8.533,8.533,8.533h8.533v8.533    c0,4.713,3.821,8.533,8.533,8.533c4.713,0,8.533-3.821,8.533-8.533V204.8h8.533c4.713,0,8.533-3.82,8.533-8.533    S235.116,187.733,230.403,187.733z" fill="#48cfc7"/>
	</g>
</g>
<g>
	<g>
		<path d="M315.737,187.733h-34.133c-4.713,0-8.533,3.82-8.533,8.533s3.82,8.533,8.533,8.533h8.533v8.533    c0,4.713,3.82,8.533,8.533,8.533s8.533-3.821,8.533-8.533V204.8h8.533c4.713,0,8.533-3.82,8.533-8.533    S320.449,187.733,315.737,187.733z" fill="#48cfc7"/>
	</g>
</g>
<g>
	<g>
		<path d="M461.845,478.592l-11.4-35.541c-2.226-5.946-4.997-11.675-8.275-17.112c-4.374-7.269-9.615-13.979-15.608-19.983    c-7.048-6.091-14.489-11.714-22.275-16.83c-0.256-0.186-0.524-0.357-0.8-0.513c-3.456-1.982-7.035-3.74-10.717-5.263    c-2.506-1.021-5.049-1.865-7.596-2.689c-20.297-24.722-19.791-34.393-18.775-51.528c0.258-4.413,0.538-9.179,0.538-14.596    c-0.903-20.402-6.316-40.351-15.85-58.411c2.216,0.561,4.554,0.398,6.671-0.464c6.904-2.325,16.192-10.087,17.504-50.529    l0.056-0.76l0.036-0.186c0.015-0.171,0.006-0.36,0.017-0.532l0.016-0.222l1.171-1.467l-1.108-3.421    c0.02-0.771,0.02-1.525,0.02-2.279c0-24.154-9.529-29.571-17.538-29.862c-1.084-0.023-2.168,0.051-3.239,0.224l-1.073-0.144    c0.217-0.449,0.394-0.916,0.529-1.396l2.904-11.946c0.042-0.171,0.079-0.346,0.108-0.525l8.142-33.323l0.055-0.224l7.362-30.132    l1.025-3.925h-0.009c0.054-0.183,0.1-0.371,0.142-0.558l0.742-3.025c0.072-0.312,0.126-0.628,0.162-0.946l0.396-1.467    c0.309-1.142,0.375-2.335,0.196-3.504c0.063-0.967,0.095-1.96,0.096-2.979C375.47,31.863,322.995,0,256.003,0    S136.537,31.863,136.537,72.533c-0.003,1.741,0.1,3.48,0.308,5.208c0.386,3.579,1.21,7.097,2.454,10.475l15.625,63.688    c0.033,0.175,0.067,0.35,0.108,0.525l2.983,12.459c0.144,0.54,0.34,1.065,0.588,1.567l-1.526,0.205    c-2.965-0.5-6.011-0.126-8.766,1.078c-11.775,5.288-11.775,22.779-11.775,28.529c0,0.296,0.012,0.546,0.014,0.84l-0.014,0.015    v1.567l-1.071,3.454l1.142,1.196l0.012,0.096l0.035,0.23c1.192,46.425,13.471,50.621,17.653,52.012    c1.475,0.5,3.022,0.758,4.579,0.763c0.69-0.065,1.375-0.179,2.049-0.342c-9.542,18.069-14.961,38.028-15.866,58.442    c0,5.417,0.279,10.183,0.538,14.596c1.016,17.135,1.523,26.807-18.778,51.531c-2.549,0.826-5.096,1.671-7.606,2.694    c-3.679,1.519-7.256,3.274-10.708,5.254c-0.276,0.154-0.541,0.325-0.796,0.513c-7.784,5.117-15.223,10.739-22.271,16.829    c-10.615,10.616-18.81,23.401-24.025,37.479l-11.271,35.175c-4.289,13.487,3.166,27.897,16.653,32.186    c2.516,0.8,5.14,1.207,7.78,1.205H437.42c14.148,0.012,25.626-11.447,25.639-25.594    C463.061,483.754,462.651,481.118,461.845,478.592z M360.439,375.839c-2.34-0.169-4.678-0.361-7.031-0.372l-28.067-28.063    c-0.018-7.611,0.433-15.215,1.35-22.77c1.066-9.038,2.588-18.016,4.559-26.901c4.448-5.496,8.358-11.406,11.678-17.649    c4.268,11.003,6.617,22.657,6.942,34.454c0,5.042-0.267,9.483-0.508,13.588C346.942,344.856,350.896,361.885,360.439,375.839z     M282.528,321.667c-15.471,12.537-37.607,12.53-53.071-0.017c-32.408-26.25-50.254-49.808-50.254-66.333    c0-1.892,0.075-3.787,0.233-5.704l0.188-2.321c0.142-1.687,0.279-3.358,0.329-4.854c1.534-23.376-0.844-46.844-7.034-69.437    c-0.318-1.149-0.5-2.55-0.76-3.817l0.005-0.004l-0.009-0.011c-0.158-0.776-0.33-1.522-0.465-2.337l1.628,1.531    c24.515-16.073,53.384-24.206,82.684-23.296c32.538,0,63.496,8.763,82.817,23.438c0.181,0.135,0.711,0.519,1.017,0.729    c-0.255,1.244-0.435,2.628-0.746,3.754c-6.179,22.524-8.562,45.921-7.05,69.229c0.063,1.717,0.2,3.388,0.341,5.075l0.196,2.421    c0.15,1.817,0.225,3.713,0.225,5.604C332.803,271.842,314.957,295.4,282.528,321.667z M310.077,320.284    c-0.096,0.778-0.253,1.609-0.34,2.379c-0.874,7.409-1.346,14.859-1.414,22.319l-52.319,44.847l-52.319-44.847    c-0.067-7.445-0.538-14.88-1.41-22.274c-0.089-0.787-0.248-1.631-0.346-2.426c5.154,4.783,10.619,9.629,16.767,14.609    c21.739,17.627,52.849,17.634,74.596,0.017C299.446,329.922,304.918,325.072,310.077,320.284z M165.111,121.804    c28.187-14.086,59.39-21.069,90.892-20.341c31.598-0.863,62.915,6.147,91.13,20.398l-6.659,27.151l-0.004,0.009    c-25.774-14.422-54.939-21.681-84.467-21.021c-29.444-0.656-58.531,6.543-84.271,20.854c-0.033-0.175-0.071-0.354-0.112-0.529    L165.111,121.804z M169.705,164.961l-0.692,0.093l-1.809-2.367l0.067-0.017L169.705,164.961z M353.727,185.345    c0.885-0.701,1.863-1.277,2.905-1.711c1.483,4.037,2.086,8.344,1.771,12.633v0.336l-0.083,0.093v3.417l-0.083,3.513    c0.568,11.926-1.356,23.839-5.65,34.979c-1.227-1.041-2.34-2.208-3.321-3.483l-0.322-0.374    C348.413,218.142,350.021,201.539,353.727,185.345z M155.737,83.604c-0.083-0.331-0.186-0.656-0.308-0.975    c-0.836-2.196-1.384-4.492-1.629-6.829c-0.13-1.084-0.195-2.175-0.196-3.267c0-30.067,46.892-55.467,102.4-55.467    s102.4,25.4,102.4,55.467c0.013,1.588-0.132,3.174-0.433,4.733c-0.059,0.302-0.102,0.606-0.129,0.912l-0.583,2.4l-0.017,0.087    l-0.013,0.037l-5.865,23.915c-8.566-4.308-17.5-7.841-26.695-10.557l7.698-23.095c1.491-4.471-0.925-9.305-5.396-10.796    c-4.471-1.491-9.305,0.925-10.796,5.396l-8.086,24.258c-14.334-3.021-28.909-4.756-43.552-5.184V51.2    c0-4.713-3.82-8.533-8.533-8.533c-4.713,0-8.533,3.82-8.533,8.533v33.441c-14.642,0.43-29.216,2.169-43.547,5.197l-8.09-24.271    c-1.491-4.471-6.325-6.887-10.796-5.396c-4.471,1.491-6.887,6.325-5.396,10.796l7.705,23.114    c-9.115,2.7-17.972,6.205-26.467,10.473L155.737,83.604z M159.445,238.637c-4.28-11.074-6.224-22.913-5.708-34.775h0.037    l-0.087-7.337l-0.08-0.084l-0.003-0.174c-0.314-4.285,0.288-8.587,1.766-12.621c1.044,0.437,2.024,1.014,2.914,1.715    c3.699,16.195,5.303,32.797,4.773,49.401C161.984,236.17,160.774,237.468,159.445,238.637z M162.645,328.125L162.645,328.125    c-0.242-4.104-0.508-8.546-0.508-13.588c0.334-11.789,2.686-23.435,6.953-34.43c3.318,6.234,7.225,12.137,11.668,17.627    c1.974,8.899,3.497,17.892,4.563,26.945c0.915,7.54,1.365,15.129,1.346,22.724l-28.067,28.063    c-2.353,0.011-4.692,0.203-7.031,0.372C161.111,361.885,165.064,344.856,162.645,328.125z M213.337,442.271v52.663H74.587    c-4.726,0.008-8.564-3.816-8.572-8.542c-0.002-0.879,0.132-1.753,0.397-2.591l11.125-34.763c1.862-4.969,4.179-9.756,6.921-14.3    c3.657-6.082,8.042-11.696,13.058-16.717c0.758-0.758,2.921-2.529,19.829-14.796c2.691-1.526,5.475-2.884,8.333-4.067    c10.593-4.358,21.934-6.608,33.388-6.625h3.071c2.263-0.001,4.433-0.9,6.033-2.5l28.546-28.546l46.738,40.062l-22.617,22.617    C216.018,428.957,213.317,435.476,213.337,442.271z M440.044,494.528c-0.848,0.271-1.734,0.408-2.624,0.405H230.403v-52.663    c-0.006-2.266,0.894-4.44,2.5-6.037l28.887-28.888l53.5-45.858l28.546,28.545c1.6,1.6,3.77,2.5,6.033,2.5h3.071    c11.449,0.017,22.785,2.264,33.375,6.617c2.862,1.187,5.65,2.548,8.346,4.075c16.925,12.279,19.083,14.046,19.825,14.792    c5.018,5.026,9.406,10.644,13.067,16.729c2.67,4.42,4.937,9.07,6.775,13.896l11.258,35.142    C447.023,488.281,444.542,493.091,440.044,494.528z" fill="#48cfc7"/>
	</g>
</g>
<g>
	<g>
		<path d="M273.07,281.6h-34.133c-4.713,0-8.533,3.82-8.533,8.533s3.82,8.533,8.533,8.533h34.133c4.713,0,8.533-3.82,8.533-8.533    S277.783,281.6,273.07,281.6z" fill="#48cfc7"/>
	</g>
</g>
<g>
	<g>
		<path d="M264.366,442.025c-0.095-0.535-0.268-1.053-0.513-1.537c-0.188-0.543-0.448-1.058-0.771-1.533    c-0.337-0.429-0.679-0.854-1.021-1.279c-0.816-0.772-1.772-1.382-2.817-1.796c-1.557-0.679-3.287-0.857-4.95-0.509    c-0.535,0.091-1.053,0.263-1.538,0.508c-0.543,0.188-1.058,0.448-1.533,0.771c-0.429,0.341-0.854,0.683-1.279,1.025    c-0.341,0.425-0.683,0.85-1.025,1.279c-0.323,0.475-0.582,0.991-0.771,1.533c-0.245,0.484-0.417,1.002-0.508,1.538    c-0.096,0.565-0.153,1.136-0.171,1.708c0.032,2.259,0.916,4.423,2.475,6.059c0.404,0.368,0.831,0.709,1.279,1.021    c0.475,0.323,0.991,0.582,1.533,0.771c0.485,0.245,1.003,0.418,1.538,0.512c0.565,0.098,1.136,0.155,1.709,0.171    c1.115-0.014,2.216-0.246,3.242-0.683c1.044-0.414,1.999-1.022,2.817-1.792c0.341-0.429,0.683-0.854,1.021-1.279    c0.324-0.476,0.583-0.993,0.771-1.538c0.257-0.509,0.431-1.056,0.513-1.621c0.098-0.535,0.155-1.077,0.171-1.621    C264.517,443.161,264.46,442.59,264.366,442.025z" fill="#48cfc7"/>
	</g>
</g>
<g>
	<g>
		<path d="M263.853,474.621c-0.434-1.032-1.04-1.983-1.791-2.813c-0.802-0.79-1.762-1.402-2.817-1.796    c-3.187-1.242-6.805-0.544-9.301,1.796c-0.754,0.828-1.362,1.78-1.796,2.813c-0.906,2.068-0.906,4.42,0,6.487    c0.434,1.034,1.041,1.987,1.796,2.817c0.404,0.368,0.831,0.709,1.279,1.021c0.475,0.323,0.991,0.582,1.533,0.771    c0.485,0.245,1.003,0.418,1.538,0.513c0.565,0.098,1.136,0.155,1.709,0.171c1.119,0.029,2.229-0.205,3.242-0.683    c1.044-0.414,1.999-1.022,2.817-1.792c1.557-1.637,2.441-3.799,2.475-6.058C264.523,476.75,264.291,475.648,263.853,474.621z" fill="#48cfc7"/>
	</g>
</g>
<g>
</g>
<g>
</g>
<g>
</g>
<g>
</g>
<g>
</g>
<g>
</g>
<g>
</g>
<g>
</g>
<g>
</g>
<g>
</g>
<g>
</g>
<g>
</g>
<g>
</g>
<g>
</g>
<g>
</g>
</svg>
