<?xml version="1.0" encoding="iso-8859-1"?>
<!-- Generator: Adobe Illustrator 17.1.0, SVG Export Plug-In . SVG Version: 6.00 Build 0)  -->
<!DOCTYPE svg PUBLIC "-//W3C//DTD SVG 1.1//EN" "http://www.w3.org/Graphics/SVG/1.1/DTD/svg11.dtd">
<svg xmlns="http://www.w3.org/2000/svg" xmlns:xlink="http://www.w3.org/1999/xlink" version="1.1" id="Capa_1" x="0px" y="0px" viewBox="0 0 480.8 480.8" style="enable-background:new 0 0 480.8 480.8;" xml:space="preserve" width="512px" height="512px">
<path d="M479.524,225.348c-0.021-0.136-0.041-0.272-0.068-0.407c-7.342-41.842-43.942-73.741-87.856-73.741H89.2  C40.015,151.2,0,191.215,0,240.4s40.015,89.2,89.2,89.2h302.4c49.186,0,89.2-40.015,89.2-89.2  C480.8,235.271,480.359,230.243,479.524,225.348z M89.2,171.2h302.4c33.247,0,61.084,23.571,67.7,54.877  c-6.023,15.243-20.706,25.324-37.286,25.324h-57.271l49.729-49.729c3.905-3.905,3.905-10.237,0-14.142  c-3.905-3.905-10.237-3.905-14.143,0l-63.872,63.872h-38.515l49.729-49.729c3.905-3.905,3.905-10.237,0-14.143  c-3.906-3.905-10.236-3.905-14.143,0l-63.871,63.871h-38.516l49.729-49.729c3.905-3.905,3.905-10.237,0-14.142  c-3.905-3.905-10.237-3.905-14.143,0l-63.872,63.872h-38.516l49.729-49.729c3.905-3.905,3.905-10.237,0-14.143  c-3.905-3.905-10.237-3.905-14.143,0l-63.872,63.872H97.542l49.729-49.729c3.905-3.905,3.905-10.237,0-14.143  c-3.905-3.905-10.237-3.905-14.143,0l-63.872,63.872H58.786c-7.91,0-15.386-2.281-21.705-6.339l43.39-43.39  c3.905-3.905,3.905-10.237,0-14.143c-3.905-3.905-10.237-3.905-14.143,0l-42.838,42.838c-0.717-1.332-1.365-2.715-1.939-4.146  c-0.017-0.042-0.039-0.08-0.056-0.121C28.102,194.782,55.945,171.2,89.2,171.2z M391.6,309.6H89.2  c-31.564,0-58.24-21.25-66.523-50.19c10.165,7.633,22.723,11.99,36.109,11.99h363.229c13.396,0,25.962-4.4,36.12-12.028  C449.864,288.331,423.178,309.6,391.6,309.6z" fill="#48cfc7"/>
<g>
</g>
<g>
</g>
<g>
</g>
<g>
</g>
<g>
</g>
<g>
</g>
<g>
</g>
<g>
</g>
<g>
</g>
<g>
</g>
<g>
</g>
<g>
</g>
<g>
</g>
<g>
</g>
<g>
</g>
</svg>
