<?xml version="1.0" encoding="iso-8859-1"?>
<!-- Generator: Adobe Illustrator 19.0.0, SVG Export Plug-In . SVG Version: 6.00 Build 0)  -->
<svg version="1.1" id="Layer_1" xmlns="http://www.w3.org/2000/svg" xmlns:xlink="http://www.w3.org/1999/xlink" x="0px" y="0px"
	 viewBox="0 0 512 512" style="enable-background:new 0 0 512 512;" xml:space="preserve">
<circle style="fill:#386895;" cx="256" cy="256" r="256"/>
<path style="fill:#273B7A;" d="M277.504,511.093c112.847-9.387,204.893-91.958,228.561-200.128l-118.75-118.75l-22.202-1.727
	l-38.002-38.002l-11.421,87.926l-3.806,6.322L113.778,347.367L277.504,511.093z"/>
<path style="fill:#FF314F;" d="M284.444,176.7l-170.667,28.444v142.222h284.444V205.145
	C398.222,205.145,382.419,164.059,284.444,176.7z"/>
<path style="fill:#A30F44;" d="M398.222,205.145c0,0-15.803-41.086-113.778-28.444L256,181.441v165.926h142.222V205.145z"/>
<rect x="113.778" y="205.145" style="fill:#FFAD9E;" width="284.444" height="142.222"/>
<rect x="256" y="205.145" style="fill:#FF6262;" width="142.222" height="142.222"/>
<rect x="113.778" y="290.478" style="fill:#FF314F;" width="284.444" height="28.444"/>
<rect x="256" y="290.478" style="fill:#A30F44;" width="142.222" height="28.444"/>
<rect x="113.778" y="233.589" style="fill:#FF314F;" width="284.444" height="28.444"/>
<rect x="256" y="233.589" style="fill:#A30F44;" width="142.222" height="28.444"/>
<circle style="fill:#FFC61B;" cx="312.889" cy="169.805" r="22.411"/>
<path style="fill:#EAA22F;" d="M312.889,147.394c12.378,0,22.411,10.033,22.411,22.411c0,12.378-10.033,22.411-22.411,22.411
	V147.394z"/>
<g>
</g>
<g>
</g>
<g>
</g>
<g>
</g>
<g>
</g>
<g>
</g>
<g>
</g>
<g>
</g>
<g>
</g>
<g>
</g>
<g>
</g>
<g>
</g>
<g>
</g>
<g>
</g>
<g>
</g>
</svg>
