<?xml version="1.0" encoding="iso-8859-1"?>
<!-- Generator: Adobe Illustrator 19.0.0, SVG Export Plug-In . SVG Version: 6.00 Build 0)  -->
<svg version="1.1" id="Layer_1" xmlns="http://www.w3.org/2000/svg" xmlns:xlink="http://www.w3.org/1999/xlink" x="0px" y="0px"
	 viewBox="0 0 512 512" style="enable-background:new 0 0 512 512;" xml:space="preserve">
<circle style="fill:#F1333F;" cx="256" cy="256" r="256"/>
<path style="fill:#AE283F;" d="M512,256c0-29.704-5.076-58.218-14.38-84.744l-78.618-78.618l-75.04-23.691L296,101.25l-71,170.875
	L84.267,424.4l63.764,63.764C180.84,503.449,217.419,512,256,512C397.385,512,512,397.385,512,256z"/>
<path style="fill:#FFFFFF;" d="M419.002,92.637c-33.277-33.278-87.426-33.277-120.701,0c-26.39,26.39-62.494,137.588-75.302,179.032
	l-67.922,67.922l16.971,16.971l67.921-67.921c41.443-12.808,152.643-48.912,179.033-75.302
	C452.279,180.062,452.279,125.915,419.002,92.637z M375.828,93.465c13.094-3.249,24.297-2.126,32.192,3.083L242.446,262.123
	c22.209-42.111,63.754-118.064,85.514-139.826l0,0C342.503,107.756,359.502,97.516,375.828,93.465z M415.091,103.619
	c5.21,7.896,6.332,19.099,3.083,32.192c-4.051,16.326-14.29,33.325-28.832,47.868c-21.759,21.759-97.714,63.305-139.825,85.515
	L415.091,103.619z M305.371,99.708c14.689-14.689,33.984-22.034,53.28-22.034c8.49,0,16.979,1.425,25.076,4.269
	c-3.326,0.335-6.768,0.938-10.308,1.816c-18.065,4.482-36.722,15.657-52.53,31.467c-19.433,19.433-52.571,77.558-75.861,120.727
	C261.527,186.558,286.672,118.408,305.371,99.708z M275.691,266.608c43.168-23.29,101.289-56.425,120.721-75.858
	c15.81-15.81,26.985-34.465,31.468-52.531c0.878-3.539,1.481-6.982,1.816-10.308c9.307,26.501,3.388,57.204-17.764,78.357
	C393.235,224.964,325.087,250.108,275.691,266.608z"/>
<path style="fill:#E0E0E0;" d="M419.002,92.637c-0.163-0.163-0.334-0.313-0.499-0.474L163.076,347.591l8.972,8.972l67.921-67.921
	c41.443-12.808,152.643-48.912,179.033-75.302C452.279,180.062,452.279,125.915,419.002,92.637z M415.091,103.619
	c5.21,7.896,6.332,19.099,3.083,32.192c-4.051,16.326-14.29,33.325-28.832,47.868c-21.759,21.759-97.714,63.305-139.825,85.515
	L415.091,103.619z M411.932,206.268c-18.697,18.696-86.844,43.84-136.24,60.34c43.168-23.29,101.289-56.425,120.721-75.858
	c15.81-15.81,26.985-34.465,31.468-52.531c0.878-3.539,1.481-6.982,1.816-10.308C439.003,154.412,433.084,185.115,411.932,206.268z"
	/>
<path style="fill:#FFB344;" d="M95.496,435.63l-18.765-18.765c-4.975-4.975-4.975-13.04,0-18.015l96.077-96.078
	c4.975-4.975,13.04-4.975,18.014,0l18.765,18.765c4.975,4.975,4.975,13.04,0,18.015L113.51,435.63
	C108.536,440.604,100.471,440.604,95.496,435.63z"/>
<path style="fill:#FF9451;" d="M199.359,311.308L85.267,425.4l10.229,10.229c4.975,4.975,13.04,4.975,18.014,0l96.077-96.078
	c4.975-4.975,4.975-13.04,0-18.015L199.359,311.308z"/>
<g>
</g>
<g>
</g>
<g>
</g>
<g>
</g>
<g>
</g>
<g>
</g>
<g>
</g>
<g>
</g>
<g>
</g>
<g>
</g>
<g>
</g>
<g>
</g>
<g>
</g>
<g>
</g>
<g>
</g>
</svg>
