<?xml version="1.0" encoding="iso-8859-1"?>
<!-- Generator: Adobe Illustrator 19.0.0, SVG Export Plug-In . SVG Version: 6.00 Build 0)  -->
<svg version="1.1" id="Layer_1" xmlns="http://www.w3.org/2000/svg" xmlns:xlink="http://www.w3.org/1999/xlink" x="0px" y="0px"
	 viewBox="0 0 512 512" style="enable-background:new 0 0 512 512;" xml:space="preserve">
<circle style="fill:#F1333F;" cx="256" cy="256" r="256"/>
<path style="fill:#AE283F;" d="M512,256c0-35.438-7.203-69.193-20.222-99.885l-74.28-74.28L267.667,209.667L155,244.333L112.333,276
	l9.729,146.156l86.13,85.368C223.682,510.451,239.659,512,256,512C397.385,512,512,397.385,512,256z"/>
<path style="fill:#FFFFFF;" d="M353.127,152.971L336.157,136l-60.244,60.244c-37.583,11.674-131.492,42.448-154.153,65.108
	c-14.159,14.159-21.957,32.984-21.957,53.008s7.798,38.849,21.957,53.008s32.984,21.957,53.008,21.957
	c20.023,0,38.849-7.798,53.008-21.957c22.66-22.661,53.433-116.569,65.107-154.153L353.127,152.971z M125.743,356.313
	c-9.51-15.766-0.05-45.413,22.758-68.22c18.259-18.259,80.572-52.617,117.808-72.345L125.743,356.313z M132.815,363.385
	L273.38,222.819c-19.727,37.235-54.085,99.547-72.346,117.808C178.227,363.435,148.581,372.896,132.815,363.385z M128.831,268.424
	c15.329-15.329,69.159-35.703,111.293-50.002c-36.736,20.003-82.697,46.603-98.694,62.601c-13.848,13.848-23.64,30.2-27.57,46.042
	c-0.531,2.138-0.944,4.235-1.249,6.288c-1.848-6.077-2.807-12.461-2.807-18.992C109.803,297.008,116.561,280.694,128.831,268.424z
	 M220.705,360.297c-12.27,12.27-28.584,19.028-45.937,19.028c-6.534,0-12.921-0.96-19-2.81c2.056-0.305,4.154-0.715,6.295-1.246
	c15.843-3.931,32.195-13.722,46.043-27.57c15.999-15.999,42.6-61.963,62.604-98.7C256.412,291.131,236.037,344.965,220.705,360.297z
	"/>
<path style="fill:#E0E0E0;" d="M121.21,366.791c0.186,0.19,0.362,0.389,0.55,0.578c14.159,14.159,32.984,21.957,53.008,21.957
	c20.023,0,38.849-7.798,53.008-21.957c22.66-22.661,53.433-116.569,65.107-154.153l60.244-60.244l-9.049-9.049L121.21,366.791z
	 M220.705,360.297c-12.27,12.27-28.584,19.028-45.937,19.028c-6.534,0-12.921-0.96-19-2.81c2.056-0.305,4.154-0.715,6.295-1.246
	c15.843-3.931,32.195-13.722,46.043-27.57c15.999-15.999,42.6-61.963,62.604-98.7C256.412,291.131,236.037,344.965,220.705,360.297z
	 M201.035,340.627c-22.807,22.808-52.454,32.269-68.22,22.758L273.38,222.819C253.653,260.053,219.296,322.366,201.035,340.627z"/>
<path style="fill:#005C83;" d="M403.911,68.249l16.34,16.34c4.332,4.332,4.332,11.355,0,15.686l-83.66,83.661
	c-4.332,4.332-11.355,4.332-15.686,0l-16.34-16.34c-4.332-4.332-4.332-11.355,0-15.686l83.66-83.661
	C392.557,63.917,399.58,63.917,403.911,68.249z"/>
<path style="fill:#00263F;" d="M420.251,84.588l-8.42-8.42l-99.346,99.346l8.42,8.421c4.332,4.332,11.355,4.332,15.686,0
	l83.659-83.661C424.583,95.943,424.583,88.92,420.251,84.588z"/>
<path style="fill:#FFDC00;" d="M453.2,286.9c0,106.701-86.499,193.2-193.2,193.2S66.8,393.601,66.8,286.9H453.2z"/>
<path style="fill:#FFC000;" d="M256.333,286.9v193.154c1.22,0.023,2.441,0.046,3.667,0.046c106.701,0,193.2-86.499,193.2-193.2
	L256.333,286.9L256.333,286.9z"/>
<g>
</g>
<g>
</g>
<g>
</g>
<g>
</g>
<g>
</g>
<g>
</g>
<g>
</g>
<g>
</g>
<g>
</g>
<g>
</g>
<g>
</g>
<g>
</g>
<g>
</g>
<g>
</g>
<g>
</g>
</svg>
