<?xml version="1.0" encoding="UTF-8" standalone="no"?><!DOCTYPE svg PUBLIC "-//W3C//DTD SVG 1.1//EN" "http://www.w3.org/Graphics/SVG/1.1/DTD/svg11.dtd"><svg width="100%" height="100%" viewBox="0 0 200 200" version="1.1" xmlns="http://www.w3.org/2000/svg" xmlns:xlink="http://www.w3.org/1999/xlink" xml:space="preserve" xmlns:serif="http://www.serif.com/" style="fill-rule:evenodd;clip-rule:evenodd;stroke-linejoin:round;stroke-miterlimit:1.41421;"><rect x="0" y="0" width="200" height="200" style="fill:#fff;"/><g><rect x="45.695" y="103.608" width="108.61" height="21.035" style="fill:#f2f2f2;"/><rect x="45.695" y="128.965" width="108.61" height="21.035" style="fill:#e6e6e6;"/><path d="M105.785,67.235c-3.613,1.64 -6.206,5.342 -6.206,9.575c0,5.785 4.743,10.507 10.506,10.507c5.763,0 10.507,-4.744 10.507,-10.507c0,-5.763 -4.655,-10.506 -10.507,-10.506c-2.748,-8.268 -11.215,-15.427 -11.637,-15.782c-0.953,-0.776 -2.327,-0.687 -3.103,0.266c-0.775,0.953 -0.687,2.328 0.266,3.103c2.416,1.973 8.091,7.669 10.174,13.344Z" style="fill:#e6e6e6;fill-rule:nonzero;"/><path d="M138.191,66.725l-14.142,5.009c0.599,1.641 0.953,3.369 0.953,5.165c0,8.179 -6.627,14.917 -14.917,14.917c-6.561,0 -12.146,-4.3 -14.141,-10.174l-50.249,17.577l108.61,0c0,-11.902 -5.852,-23.007 -16.114,-32.494Z" style="fill:#e6e6e6;fill-rule:nonzero;"/></g></svg>