<?xml version="1.0" encoding="UTF-8" standalone="no"?><!DOCTYPE svg PUBLIC "-//W3C//DTD SVG 1.1//EN" "http://www.w3.org/Graphics/SVG/1.1/DTD/svg11.dtd"><svg width="100%" height="100%" viewBox="0 0 931 183" version="1.1" xmlns="http://www.w3.org/2000/svg" xmlns:xlink="http://www.w3.org/1999/xlink" xml:space="preserve" xmlns:serif="http://www.serif.com/" style="fill-rule:evenodd;clip-rule:evenodd;stroke-linecap:round;stroke-linejoin:round;stroke-miterlimit:1.41421;"><g><path d="M591.403,172.331c-0.305,-1.053 -0.458,-2.563 -0.458,-4.532c-0.976,1.587 -2.312,2.815 -4.005,3.685c-1.694,0.87 -3.609,1.305 -5.745,1.305c-2.289,0 -4.132,-0.622 -5.528,-1.866c-1.396,-1.243 -2.094,-2.864 -2.094,-4.863c0,-2.274 1.026,-4.093 3.078,-5.459c2.053,-1.366 4.78,-2.064 8.183,-2.094l6.111,0l0,-3.617c0,-2.075 -0.652,-3.685 -1.957,-4.829c-1.304,-1.145 -3.17,-1.717 -5.596,-1.717c-2.258,0 -4.143,0.58 -5.653,1.74c-1.511,1.159 -2.266,2.594 -2.266,4.303l-1.236,-0.046c0,-2.014 0.885,-3.723 2.655,-5.127c1.77,-1.404 3.936,-2.106 6.5,-2.106c2.67,0 4.791,0.668 6.363,2.003c1.572,1.335 2.38,3.216 2.426,5.642l0,11.833c0,2.716 0.214,4.562 0.641,5.539l0,0.206l-1.419,0Zm-10.208,-0.755c2.319,0 4.314,-0.519 5.985,-1.557c1.671,-1.037 2.926,-2.494 3.765,-4.371l0,-5.883l-5.722,0c-3.54,0 -6.248,0.702 -8.125,2.106c-1.526,1.145 -2.289,2.571 -2.289,4.28c0,1.511 0.603,2.793 1.808,3.845c1.206,1.053 2.731,1.58 4.578,1.58Z" style="fill:#352927;fill-rule:nonzero;"/><path d="M611.064,148.459l-1.602,-0.138c-2.106,0 -3.868,0.683 -5.288,2.049c-1.419,1.366 -2.349,3.277 -2.792,5.733l0,16.228l-1.236,0l0,-24.765l1.236,0l0,5.15c0.671,-1.724 1.679,-3.09 3.021,-4.097c1.343,-1.007 3.029,-1.511 5.059,-1.511c0.717,0 1.297,0.084 1.739,0.252l-0.137,1.099Z" style="fill:#352927;fill-rule:nonzero;"/><path d="M619.738,140.883l0,6.683l5.631,0l0,1.259l-5.631,0l0,17.578c0,1.755 0.287,3.052 0.859,3.891c0.572,0.839 1.529,1.259 2.872,1.259c0.672,0 1.488,-0.069 2.449,-0.206l0.206,1.167c-0.503,0.183 -1.365,0.275 -2.586,0.275c-1.801,0 -3.09,-0.5 -3.868,-1.499c-0.778,-1 -1.175,-2.575 -1.19,-4.727l0,-17.738l-4.578,0l0,-1.259l4.578,0l0,-6.683l1.258,0Z" style="fill:#352927;fill-rule:nonzero;"/><path d="M633.334,172.331l-1.236,0l0,-24.765l1.236,0l0,24.765Zm-1.877,-32.501c0,-0.351 0.122,-0.652 0.366,-0.904c0.245,-0.252 0.542,-0.378 0.893,-0.378c0.351,0 0.652,0.126 0.904,0.378c0.252,0.252 0.378,0.553 0.378,0.904c0,0.351 -0.126,0.648 -0.378,0.892c-0.252,0.245 -0.553,0.367 -0.904,0.367c-0.351,0 -0.648,-0.122 -0.893,-0.367c-0.244,-0.244 -0.366,-0.541 -0.366,-0.892Z" style="fill:#352927;fill-rule:nonzero;"/><path d="M656.726,166.266c0,-3.006 -2.564,-5.051 -7.691,-6.134c-3.082,-0.656 -5.226,-1.5 -6.431,-2.529c-1.206,-1.03 -1.808,-2.446 -1.808,-4.246c0,-1.816 0.766,-3.311 2.3,-4.486c1.533,-1.175 3.528,-1.763 5.985,-1.763c2.67,0 4.814,0.637 6.432,1.911c1.617,1.275 2.426,2.995 2.426,5.162l-1.259,0c0,-1.663 -0.702,-3.052 -2.106,-4.166c-1.404,-1.114 -3.235,-1.671 -5.493,-1.671c-2.167,0 -3.883,0.473 -5.15,1.419c-1.266,0.946 -1.9,2.129 -1.9,3.548c0,1.114 0.237,1.987 0.71,2.621c0.473,0.633 1.244,1.205 2.312,1.716c1.068,0.511 2.624,1.004 4.669,1.477c2.045,0.473 3.662,1.03 4.852,1.67c1.19,0.641 2.053,1.4 2.587,2.278c0.534,0.877 0.801,1.949 0.801,3.216c0,1.953 -0.801,3.524 -2.404,4.715c-1.602,1.19 -3.7,1.785 -6.294,1.785c-2.777,0 -5.016,-0.63 -6.718,-1.888c-1.701,-1.259 -2.552,-2.881 -2.552,-4.864l1.236,0c0.122,1.739 0.889,3.094 2.301,4.062c1.411,0.969 3.322,1.454 5.733,1.454c2.213,0 4.009,-0.515 5.39,-1.545c1.381,-1.03 2.072,-2.277 2.072,-3.742Z" style="fill:#352927;fill-rule:nonzero;"/><path d="M680.781,172.331c-0.305,-1.053 -0.458,-2.563 -0.458,-4.532c-0.976,1.587 -2.311,2.815 -4.005,3.685c-1.694,0.87 -3.609,1.305 -5.745,1.305c-2.289,0 -4.131,-0.622 -5.527,-1.866c-1.397,-1.243 -2.095,-2.864 -2.095,-4.863c0,-2.274 1.026,-4.093 3.079,-5.459c2.052,-1.366 4.78,-2.064 8.182,-2.094l6.111,0l0,-3.617c0,-2.075 -0.652,-3.685 -1.957,-4.829c-1.304,-1.145 -3.17,-1.717 -5.596,-1.717c-2.258,0 -4.142,0.58 -5.653,1.74c-1.511,1.159 -2.266,2.594 -2.266,4.303l-1.236,-0.046c0,-2.014 0.885,-3.723 2.655,-5.127c1.77,-1.404 3.937,-2.106 6.5,-2.106c2.671,0 4.792,0.668 6.363,2.003c1.572,1.335 2.381,3.216 2.426,5.642l0,11.833c0,2.716 0.214,4.562 0.641,5.539l0,0.206l-1.419,0Zm-10.208,-0.755c2.319,0 4.314,-0.519 5.985,-1.557c1.671,-1.037 2.926,-2.494 3.765,-4.371l0,-5.883l-5.722,0c-3.54,0 -6.248,0.702 -8.125,2.106c-1.526,1.145 -2.289,2.571 -2.289,4.28c0,1.511 0.603,2.793 1.808,3.845c1.206,1.053 2.732,1.58 4.578,1.58Z" style="fill:#352927;fill-rule:nonzero;"/><path d="M690.76,153.334c0.809,-1.923 1.999,-3.441 3.571,-4.555c1.572,-1.114 3.311,-1.671 5.218,-1.671c2.656,0 4.628,0.752 5.917,2.255c1.289,1.503 1.942,3.772 1.957,6.809l0,16.159l-1.236,0l0,-16.205c-0.015,-2.655 -0.557,-4.619 -1.625,-5.893c-1.068,-1.275 -2.762,-1.912 -5.081,-1.912c-2.136,0 -3.987,0.759 -5.551,2.278c-1.564,1.518 -2.62,3.475 -3.17,5.871l0,15.861l-1.236,0l0,-24.765l1.236,0l0,5.768Z" style="fill:#352927;fill-rule:nonzero;"/><path d="M731.181,172.331c-0.305,-1.053 -0.458,-2.563 -0.458,-4.532c-0.976,1.587 -2.312,2.815 -4.005,3.685c-1.694,0.87 -3.609,1.305 -5.745,1.305c-2.289,0 -4.131,-0.622 -5.528,-1.866c-1.396,-1.243 -2.094,-2.864 -2.094,-4.863c0,-2.274 1.026,-4.093 3.079,-5.459c2.052,-1.366 4.779,-2.064 8.182,-2.094l6.111,0l0,-3.617c0,-2.075 -0.652,-3.685 -1.957,-4.829c-1.304,-1.145 -3.17,-1.717 -5.596,-1.717c-2.258,0 -4.143,0.58 -5.653,1.74c-1.511,1.159 -2.266,2.594 -2.266,4.303l-1.236,-0.046c0,-2.014 0.885,-3.723 2.655,-5.127c1.77,-1.404 3.937,-2.106 6.5,-2.106c2.67,0 4.791,0.668 6.363,2.003c1.572,1.335 2.38,3.216 2.426,5.642l0,11.833c0,2.716 0.214,4.562 0.641,5.539l0,0.206l-1.419,0Zm-10.208,-0.755c2.319,0 4.314,-0.519 5.985,-1.557c1.671,-1.037 2.926,-2.494 3.765,-4.371l0,-5.883l-5.722,0c-3.54,0 -6.248,0.702 -8.125,2.106c-1.526,1.145 -2.289,2.571 -2.289,4.28c0,1.511 0.603,2.793 1.808,3.845c1.206,1.053 2.732,1.58 4.578,1.58Z" style="fill:#352927;fill-rule:nonzero;"/><rect x="740.222" y="137.175" width="1.236" height="35.156" style="fill:#352927;fill-rule:nonzero;"/><path d="M759.654,159.697c0,-3.952 0.831,-7.038 2.495,-9.258c1.663,-2.221 3.944,-3.331 6.843,-3.331c1.862,0 3.506,0.42 4.933,1.259c1.426,0.839 2.582,2.091 3.467,3.754l0,-14.946l1.236,0l0,35.156l-1.236,0l0,-3.96c-0.839,1.404 -1.991,2.491 -3.456,3.262c-1.465,0.771 -3.128,1.156 -4.99,1.156c-2.868,0 -5.134,-1.137 -6.797,-3.411c-1.664,-2.273 -2.495,-5.394 -2.495,-9.361l0,-0.32Zm1.282,0.48c0,3.51 0.694,6.283 2.082,8.32c1.389,2.037 3.357,3.056 5.906,3.056c2.044,0 3.791,-0.454 5.241,-1.362c1.45,-0.908 2.525,-2.239 3.227,-3.994l0,-11.604c-1.419,-4.166 -4.226,-6.249 -8.423,-6.249c-2.533,0 -4.505,1 -5.916,2.999c-1.412,1.998 -2.117,4.943 -2.117,8.834Z" style="fill:#352927;fill-rule:nonzero;"/><path d="M795.359,172.789c-1.998,0 -3.833,-0.538 -5.504,-1.614c-1.671,-1.076 -2.979,-2.552 -3.925,-4.429c-0.947,-1.876 -1.42,-3.959 -1.42,-6.248l0,-1.03c0,-2.289 0.458,-4.387 1.374,-6.294c0.915,-1.908 2.174,-3.395 3.776,-4.464c1.602,-1.068 3.35,-1.602 5.242,-1.602c2.762,0 5.02,0.984 6.775,2.953c1.754,1.968 2.632,4.555 2.632,7.759l0,1.305l-18.563,0l0,1.35c0,2.014 0.424,3.88 1.271,5.596c0.847,1.717 2.014,3.063 3.502,4.04c1.487,0.976 3.101,1.465 4.84,1.465c1.664,0 3.079,-0.279 4.246,-0.836c1.167,-0.557 2.201,-1.415 3.102,-2.575l0.869,0.618c-1.846,2.671 -4.585,4.006 -8.217,4.006Zm-0.457,-24.445c-2.411,0 -4.456,0.897 -6.134,2.69c-1.679,1.793 -2.663,4.078 -2.953,6.855l17.258,0l0,-0.298c0,-1.678 -0.355,-3.239 -1.065,-4.681c-0.709,-1.442 -1.686,-2.563 -2.929,-3.364c-1.244,-0.801 -2.636,-1.202 -4.177,-1.202Z" style="fill:#352927;fill-rule:nonzero;"/><path d="M825.343,166.266c0,-3.006 -2.564,-5.051 -7.69,-6.134c-3.083,-0.656 -5.227,-1.5 -6.432,-2.529c-1.205,-1.03 -1.808,-2.446 -1.808,-4.246c0,-1.816 0.767,-3.311 2.3,-4.486c1.534,-1.175 3.529,-1.763 5.985,-1.763c2.671,0 4.814,0.637 6.432,1.911c1.617,1.275 2.426,2.995 2.426,5.162l-1.259,0c0,-1.663 -0.702,-3.052 -2.106,-4.166c-1.403,-1.114 -3.234,-1.671 -5.493,-1.671c-2.166,0 -3.883,0.473 -5.15,1.419c-1.266,0.946 -1.899,2.129 -1.899,3.548c0,1.114 0.236,1.987 0.709,2.621c0.473,0.633 1.244,1.205 2.312,1.716c1.068,0.511 2.624,1.004 4.669,1.477c2.045,0.473 3.662,1.03 4.852,1.67c1.191,0.641 2.053,1.4 2.587,2.278c0.534,0.877 0.801,1.949 0.801,3.216c0,1.953 -0.801,3.524 -2.403,4.715c-1.603,1.19 -3.701,1.785 -6.295,1.785c-2.777,0 -5.016,-0.63 -6.717,-1.888c-1.702,-1.259 -2.552,-2.881 -2.552,-4.864l1.236,0c0.122,1.739 0.888,3.094 2.3,4.062c1.411,0.969 3.323,1.454 5.733,1.454c2.213,0 4.01,-0.515 5.391,-1.545c1.38,-1.03 2.071,-2.277 2.071,-3.742Z" style="fill:#352927;fill-rule:nonzero;"/><path d="M848.666,166.266c0,-3.006 -2.563,-5.051 -7.69,-6.134c-3.083,-0.656 -5.227,-1.5 -6.432,-2.529c-1.205,-1.03 -1.808,-2.446 -1.808,-4.246c0,-1.816 0.767,-3.311 2.3,-4.486c1.534,-1.175 3.529,-1.763 5.985,-1.763c2.671,0 4.815,0.637 6.432,1.911c1.617,1.275 2.426,2.995 2.426,5.162l-1.259,0c0,-1.663 -0.702,-3.052 -2.105,-4.166c-1.404,-1.114 -3.235,-1.671 -5.494,-1.671c-2.166,0 -3.883,0.473 -5.149,1.419c-1.267,0.946 -1.9,2.129 -1.9,3.548c0,1.114 0.236,1.987 0.709,2.621c0.473,0.633 1.244,1.205 2.312,1.716c1.068,0.511 2.625,1.004 4.669,1.477c2.045,0.473 3.662,1.03 4.853,1.67c1.19,0.641 2.052,1.4 2.586,2.278c0.534,0.877 0.801,1.949 0.801,3.216c0,1.953 -0.801,3.524 -2.403,4.715c-1.602,1.19 -3.701,1.785 -6.295,1.785c-2.777,0 -5.016,-0.63 -6.717,-1.888c-1.702,-1.259 -2.552,-2.881 -2.552,-4.864l1.236,0c0.122,1.739 0.889,3.094 2.3,4.062c1.411,0.969 3.323,1.454 5.733,1.454c2.213,0 4.01,-0.515 5.391,-1.545c1.381,-1.03 2.071,-2.277 2.071,-3.742Z" style="fill:#352927;fill-rule:nonzero;"/><path d="M865.626,172.789c-1.999,0 -3.834,-0.538 -5.504,-1.614c-1.671,-1.076 -2.98,-2.552 -3.926,-4.429c-0.946,-1.876 -1.419,-3.959 -1.419,-6.248l0,-1.03c0,-2.289 0.458,-4.387 1.373,-6.294c0.916,-1.908 2.175,-3.395 3.777,-4.464c1.602,-1.068 3.349,-1.602 5.241,-1.602c2.762,0 5.021,0.984 6.775,2.953c1.755,1.968 2.632,4.555 2.632,7.759l0,1.305l-18.562,0l0,1.35c0,2.014 0.424,3.88 1.27,5.596c0.847,1.717 2.015,3.063 3.502,4.04c1.488,0.976 3.102,1.465 4.841,1.465c1.663,0 3.079,-0.279 4.246,-0.836c1.167,-0.557 2.201,-1.415 3.101,-2.575l0.87,0.618c-1.846,2.671 -4.585,4.006 -8.217,4.006Zm-0.458,-24.445c-2.41,0 -4.455,0.897 -6.134,2.69c-1.678,1.793 -2.662,4.078 -2.952,6.855l17.257,0l0,-0.298c0,-1.678 -0.354,-3.239 -1.064,-4.681c-0.709,-1.442 -1.686,-2.563 -2.93,-3.364c-1.243,-0.801 -2.635,-1.202 -4.177,-1.202Z" style="fill:#352927;fill-rule:nonzero;"/><path d="M891.261,148.459l-1.602,-0.138c-2.106,0 -3.868,0.683 -5.287,2.049c-1.419,1.366 -2.35,3.277 -2.793,5.733l0,16.228l-1.236,0l0,-24.765l1.236,0l0,5.15c0.672,-1.724 1.679,-3.09 3.021,-4.097c1.343,-1.007 3.029,-1.511 5.059,-1.511c0.717,0 1.297,0.084 1.739,0.252l-0.137,1.099Z" style="fill:#352927;fill-rule:nonzero;"/><path d="M899.936,140.883l0,6.683l5.63,0l0,1.259l-5.63,0l0,17.578c0,1.755 0.286,3.052 0.858,3.891c0.572,0.839 1.53,1.259 2.872,1.259c0.672,0 1.488,-0.069 2.449,-0.206l0.206,1.167c-0.503,0.183 -1.365,0.275 -2.586,0.275c-1.801,0 -3.09,-0.5 -3.868,-1.499c-0.778,-1 -1.175,-2.575 -1.19,-4.727l0,-17.738l-4.578,0l0,-1.259l4.578,0l0,-6.683l1.259,0Z" style="fill:#352927;fill-rule:nonzero;"/><path d="M927.264,166.266c0,-3.006 -2.563,-5.051 -7.69,-6.134c-3.083,-0.656 -5.227,-1.5 -6.432,-2.529c-1.205,-1.03 -1.808,-2.446 -1.808,-4.246c0,-1.816 0.767,-3.311 2.3,-4.486c1.534,-1.175 3.529,-1.763 5.985,-1.763c2.671,0 4.815,0.637 6.432,1.911c1.617,1.275 2.426,2.995 2.426,5.162l-1.259,0c0,-1.663 -0.702,-3.052 -2.105,-4.166c-1.404,-1.114 -3.235,-1.671 -5.494,-1.671c-2.166,0 -3.883,0.473 -5.149,1.419c-1.267,0.946 -1.9,2.129 -1.9,3.548c0,1.114 0.236,1.987 0.709,2.621c0.473,0.633 1.244,1.205 2.312,1.716c1.068,0.511 2.625,1.004 4.669,1.477c2.045,0.473 3.662,1.03 4.853,1.67c1.19,0.641 2.052,1.4 2.586,2.278c0.534,0.877 0.801,1.949 0.801,3.216c0,1.953 -0.801,3.524 -2.403,4.715c-1.602,1.19 -3.701,1.785 -6.295,1.785c-2.777,0 -5.016,-0.63 -6.717,-1.888c-1.702,-1.259 -2.552,-2.881 -2.552,-4.864l1.236,0c0.122,1.739 0.889,3.094 2.3,4.062c1.411,0.969 3.323,1.454 5.733,1.454c2.213,0 4.01,-0.515 5.391,-1.545c1.381,-1.03 2.071,-2.277 2.071,-3.742Z" style="fill:#352927;fill-rule:nonzero;"/><path d="M262.721,139.152l0,6.763l5.469,0l0,2.393l-5.469,0l0,17.602c0,1.465 0.265,2.555 0.794,3.272c0.529,0.716 1.412,1.074 2.649,1.074c0.488,0 1.277,-0.082 2.368,-0.244l0.122,2.392c-0.765,0.277 -1.807,0.415 -3.125,0.415c-2.002,0 -3.459,-0.582 -4.37,-1.745c-0.912,-1.164 -1.367,-2.877 -1.367,-5.139l0,-17.627l-4.859,0l0,-2.393l4.859,0l0,-6.763l2.929,0Z" style="fill:#33ccc2;fill-rule:nonzero;"/><path d="M290.92,172.331c-0.293,-0.83 -0.48,-2.059 -0.562,-3.686c-1.025,1.334 -2.331,2.364 -3.918,3.088c-1.587,0.724 -3.268,1.086 -5.042,1.086c-2.539,0 -4.594,-0.708 -6.164,-2.124c-1.571,-1.416 -2.356,-3.206 -2.356,-5.371c0,-2.571 1.07,-4.606 3.21,-6.103c2.14,-1.498 5.123,-2.246 8.948,-2.246l5.298,0l0,-3.003c0,-1.888 -0.582,-3.374 -1.746,-4.456c-1.164,-1.082 -2.86,-1.623 -5.09,-1.623c-2.035,0 -3.719,0.52 -5.054,1.562c-1.335,1.042 -2.002,2.295 -2.002,3.76l-2.93,-0.025c0,-2.099 0.977,-3.918 2.93,-5.456c1.953,-1.538 4.354,-2.307 7.202,-2.307c2.946,0 5.27,0.736 6.97,2.209c1.701,1.473 2.576,3.528 2.625,6.165l0,12.5c0,2.555 0.269,4.468 0.806,5.737l0,0.293l-3.125,0Zm-9.18,-2.1c1.953,0 3.699,-0.472 5.237,-1.416c1.538,-0.944 2.657,-2.205 3.357,-3.784l0,-5.81l-5.225,0c-2.913,0.032 -5.192,0.565 -6.836,1.599c-1.644,1.033 -2.466,2.453 -2.466,4.26c0,1.481 0.55,2.71 1.648,3.687c1.099,0.976 2.527,1.464 4.285,1.464Z" style="fill:#33ccc2;fill-rule:nonzero;"/><path d="M316.847,165.617c0,-1.448 -0.581,-2.612 -1.745,-3.491c-1.164,-0.879 -2.918,-1.567 -5.261,-2.063c-2.344,-0.496 -4.163,-1.066 -5.457,-1.709c-1.294,-0.643 -2.254,-1.428 -2.881,-2.356c-0.626,-0.928 -0.94,-2.051 -0.94,-3.369c0,-2.083 0.871,-3.805 2.613,-5.164c1.741,-1.359 3.971,-2.038 6.689,-2.038c2.946,0 5.31,0.728 7.092,2.185c1.782,1.457 2.674,3.357 2.674,5.701l-2.93,0c0,-1.547 -0.647,-2.833 -1.941,-3.858c-1.294,-1.025 -2.926,-1.538 -4.895,-1.538c-1.921,0 -3.463,0.427 -4.626,1.282c-1.164,0.854 -1.746,1.965 -1.746,3.332c0,1.319 0.484,2.34 1.453,3.064c0.968,0.724 2.734,1.388 5.297,1.99c2.564,0.602 4.484,1.245 5.762,1.929c1.278,0.683 2.226,1.505 2.844,2.465c0.619,0.961 0.928,2.125 0.928,3.492c0,2.23 -0.899,4.012 -2.698,5.346c-1.798,1.335 -4.146,2.002 -7.043,2.002c-3.076,0 -5.571,-0.744 -7.483,-2.234c-1.912,-1.489 -2.869,-3.373 -2.869,-5.651l2.93,0c0.114,1.709 0.834,3.039 2.161,3.991c1.326,0.952 3.08,1.429 5.261,1.429c2.034,0 3.678,-0.448 4.932,-1.343c1.253,-0.895 1.879,-2.027 1.879,-3.394Z" style="fill:#33ccc2;fill-rule:nonzero;"/><path d="M330.885,139.152l0,6.763l5.469,0l0,2.393l-5.469,0l0,17.602c0,1.465 0.265,2.555 0.794,3.272c0.529,0.716 1.412,1.074 2.649,1.074c0.488,0 1.278,-0.082 2.368,-0.244l0.122,2.392c-0.765,0.277 -1.807,0.415 -3.125,0.415c-2.002,0 -3.459,-0.582 -4.37,-1.745c-0.911,-1.164 -1.367,-2.877 -1.367,-5.139l0,-17.627l-4.859,0l0,-2.393l4.859,0l0,-6.763l2.929,0Z" style="fill:#33ccc2;fill-rule:nonzero;"/><path d="M350.783,168.132l7.715,-22.217l3.149,0l-11.279,30.908l-0.586,1.367c-1.449,3.207 -3.687,4.81 -6.714,4.81c-0.7,0 -1.448,-0.114 -2.246,-0.342l-0.024,-2.417l1.513,0.147c1.433,0 2.592,-0.354 3.479,-1.062c0.887,-0.708 1.64,-1.925 2.259,-3.65l1.294,-3.565l-9.961,-26.196l3.198,0l8.203,22.217Z" style="fill:#33ccc2;fill-rule:nonzero;"/><path d="M370.705,139.152l0,6.763l5.469,0l0,2.393l-5.469,0l0,17.602c0,1.465 0.264,2.555 0.793,3.272c0.529,0.716 1.412,1.074 2.649,1.074c0.488,0 1.278,-0.082 2.368,-0.244l0.122,2.392c-0.765,0.277 -1.806,0.415 -3.125,0.415c-2.002,0 -3.458,-0.582 -4.37,-1.745c-0.911,-1.164 -1.367,-2.877 -1.367,-5.139l0,-17.627l-4.858,0l0,-2.393l4.858,0l0,-6.763l2.93,0Z" style="fill:#33ccc2;fill-rule:nonzero;"/><path d="M398.903,172.331c-0.293,-0.83 -0.48,-2.059 -0.561,-3.686c-1.026,1.334 -2.332,2.364 -3.919,3.088c-1.587,0.724 -3.267,1.086 -5.041,1.086c-2.539,0 -4.594,-0.708 -6.165,-2.124c-1.571,-1.416 -2.356,-3.206 -2.356,-5.371c0,-2.571 1.07,-4.606 3.211,-6.103c2.14,-1.498 5.122,-2.246 8.947,-2.246l5.298,0l0,-3.003c0,-1.888 -0.582,-3.374 -1.745,-4.456c-1.164,-1.082 -2.861,-1.623 -5.091,-1.623c-2.034,0 -3.719,0.52 -5.054,1.562c-1.334,1.042 -2.001,2.295 -2.001,3.76l-2.93,-0.025c0,-2.099 0.976,-3.918 2.93,-5.456c1.953,-1.538 4.353,-2.307 7.202,-2.307c2.946,0 5.269,0.736 6.97,2.209c1.701,1.473 2.576,3.528 2.624,6.165l0,12.5c0,2.555 0.269,4.468 0.806,5.737l0,0.293l-3.125,0Zm-9.18,-2.1c1.953,0 3.699,-0.472 5.237,-1.416c1.538,-0.944 2.657,-2.205 3.357,-3.784l0,-5.81l-5.224,0c-2.914,0.032 -5.193,0.565 -6.836,1.599c-1.644,1.033 -2.466,2.453 -2.466,4.26c0,1.481 0.549,2.71 1.648,3.687c1.098,0.976 2.527,1.464 4.284,1.464Z" style="fill:#33ccc2;fill-rule:nonzero;"/><path d="M424.831,165.617c0,-1.448 -0.582,-2.612 -1.746,-3.491c-1.164,-0.879 -2.917,-1.567 -5.261,-2.063c-2.344,-0.496 -4.163,-1.066 -5.457,-1.709c-1.294,-0.643 -2.254,-1.428 -2.88,-2.356c-0.627,-0.928 -0.94,-2.051 -0.94,-3.369c0,-2.083 0.87,-3.805 2.612,-5.164c1.741,-1.359 3.971,-2.038 6.689,-2.038c2.946,0 5.31,0.728 7.093,2.185c1.782,1.457 2.673,3.357 2.673,5.701l-2.93,0c0,-1.547 -0.647,-2.833 -1.941,-3.858c-1.294,-1.025 -2.925,-1.538 -4.895,-1.538c-1.92,0 -3.462,0.427 -4.626,1.282c-1.164,0.854 -1.746,1.965 -1.746,3.332c0,1.319 0.485,2.34 1.453,3.064c0.968,0.724 2.734,1.388 5.298,1.99c2.563,0.602 4.484,1.245 5.762,1.929c1.277,0.683 2.225,1.505 2.844,2.465c0.618,0.961 0.927,2.125 0.927,3.492c0,2.23 -0.899,4.012 -2.697,5.346c-1.799,1.335 -4.147,2.002 -7.044,2.002c-3.076,0 -5.57,-0.744 -7.483,-2.234c-1.912,-1.489 -2.868,-3.373 -2.868,-5.651l2.929,0c0.114,1.709 0.835,3.039 2.161,3.991c1.327,0.952 3.08,1.429 5.261,1.429c2.035,0 3.679,-0.448 4.932,-1.343c1.253,-0.895 1.88,-2.027 1.88,-3.394Z" style="fill:#33ccc2;fill-rule:nonzero;"/><path d="M438.869,139.152l0,6.763l5.469,0l0,2.393l-5.469,0l0,17.602c0,1.465 0.264,2.555 0.793,3.272c0.529,0.716 1.412,1.074 2.649,1.074c0.489,0 1.278,-0.082 2.368,-0.244l0.122,2.392c-0.764,0.277 -1.806,0.415 -3.125,0.415c-2.001,0 -3.458,-0.582 -4.37,-1.745c-0.911,-1.164 -1.367,-2.877 -1.367,-5.139l0,-17.627l-4.858,0l0,-2.393l4.858,0l0,-6.763l2.93,0Z" style="fill:#33ccc2;fill-rule:nonzero;"/><path d="M460.622,172.819c-2.246,0 -4.277,-0.553 -6.092,-1.66c-1.814,-1.107 -3.226,-2.649 -4.235,-4.626c-1.009,-1.978 -1.514,-4.195 -1.514,-6.653l0,-1.05c0,-2.539 0.492,-4.826 1.477,-6.86c0.985,-2.035 2.356,-3.634 4.114,-4.798c1.758,-1.163 3.662,-1.745 5.713,-1.745c3.206,0 5.749,1.094 7.629,3.283c1.88,2.19 2.82,5.18 2.82,8.973l0,1.635l-18.848,0l0,0.562c0,2.995 0.859,5.489 2.576,7.483c1.717,1.994 3.878,2.991 6.482,2.991c1.562,0 2.942,-0.285 4.138,-0.855c1.196,-0.57 2.283,-1.481 3.259,-2.734l1.831,1.391c-2.148,3.109 -5.265,4.663 -9.35,4.663Zm-0.537,-24.902c-2.198,0 -4.049,0.806 -5.555,2.417c-1.505,1.611 -2.421,3.776 -2.746,6.494l15.845,0l0,-0.317c-0.082,-2.539 -0.806,-4.606 -2.173,-6.201c-1.367,-1.595 -3.158,-2.393 -5.371,-2.393Z" style="fill:#33ccc2;fill-rule:nonzero;"/><path d="M475.954,170.573c0,-0.569 0.183,-1.054 0.549,-1.452c0.366,-0.399 0.875,-0.599 1.526,-0.599c0.651,0 1.164,0.2 1.538,0.599c0.374,0.398 0.562,0.883 0.562,1.452c0,0.57 -0.188,1.038 -0.562,1.404c-0.374,0.366 -0.887,0.549 -1.538,0.549c-0.651,0 -1.16,-0.183 -1.526,-0.549c-0.366,-0.366 -0.549,-0.834 -0.549,-1.404Z" style="fill:#33ccc2;fill-rule:nonzero;"/><path d="M500.368,148.405c-0.619,-0.114 -1.278,-0.171 -1.978,-0.171c-1.823,0 -3.365,0.509 -4.626,1.526c-1.261,1.018 -2.161,2.495 -2.698,4.431l0,18.14l-2.905,0l0,-26.416l2.856,0l0.049,4.199c1.546,-3.125 4.028,-4.687 7.446,-4.687c0.814,0 1.457,0.106 1.929,0.317l-0.073,2.661Z" style="fill:#33ccc2;fill-rule:nonzero;"/><path d="M502.883,158.732c0,-2.539 0.492,-4.825 1.477,-6.86c0.984,-2.034 2.376,-3.617 4.174,-4.748c1.799,-1.132 3.837,-1.697 6.116,-1.697c3.516,0 6.364,1.233 8.545,3.698c2.181,2.466 3.272,5.734 3.272,9.803l0,0.61c0,2.555 -0.493,4.854 -1.478,6.897c-0.984,2.043 -2.372,3.617 -4.162,4.724c-1.79,1.107 -3.833,1.66 -6.128,1.66c-3.499,0 -6.344,-1.233 -8.533,-3.698c-2.189,-2.466 -3.283,-5.734 -3.283,-9.803l0,-0.586Zm2.929,0.806c0,3.158 0.818,5.75 2.454,7.776c1.636,2.026 3.78,3.04 6.433,3.04c2.637,0 4.773,-1.014 6.409,-3.04c1.635,-2.026 2.453,-4.7 2.453,-8.02l0,-0.562c0,-2.018 -0.374,-3.865 -1.123,-5.542c-0.748,-1.676 -1.798,-2.974 -3.149,-3.894c-1.351,-0.919 -2.897,-1.379 -4.639,-1.379c-2.604,0 -4.728,1.021 -6.372,3.064c-1.644,2.043 -2.466,4.716 -2.466,8.02l0,0.537Z" style="fill:#33ccc2;fill-rule:nonzero;"/><g id="logotext"><path d="M254.065,34.06c-0.313,-1.105 -0.92,-1.855 -1.82,-2.25c-0.9,-0.394 -1.879,-0.611 -2.936,-0.651c-1.057,-0.039 -2.094,0.02 -3.112,0.178c-1.018,0.157 -1.801,0.236 -2.349,0.236c-1.331,-0.079 -3.64,-0.236 -6.928,-0.473c-3.289,-0.237 -6.831,-0.493 -10.628,-0.77c-3.798,-0.276 -7.34,-0.552 -10.628,-0.828c-3.289,-0.277 -5.598,-0.454 -6.929,-0.533c0,-0.158 -0.039,-0.553 -0.118,-1.184c-0.078,-0.631 -0.117,-1.066 -0.117,-1.302c0,-1.105 0.098,-2.092 0.294,-2.96c0.195,-0.868 0.959,-1.539 2.29,-2.013c7.359,0.158 14.62,0.119 21.784,-0.118c7.164,-0.237 14.327,-0.572 21.491,-1.006c7.163,-0.435 14.327,-0.849 21.491,-1.244c7.163,-0.394 14.385,-0.591 21.666,-0.591c0,2.999 -0.704,5.189 -2.113,6.57c-1.41,1.381 -3.152,2.309 -5.226,2.782c-2.075,0.474 -4.365,0.671 -6.87,0.592c-2.506,-0.079 -4.913,-0.039 -7.223,0.119c-2.309,0.158 -4.345,0.611 -6.106,1.361c-1.762,0.75 -2.917,2.111 -3.465,4.085c-0.078,0.473 -0.156,1.381 -0.234,2.723c-0.079,1.341 -0.138,2.762 -0.177,4.262c-0.039,1.499 -0.078,2.9 -0.117,4.202c-0.039,1.303 -0.059,2.23 -0.059,2.783c0,4.498 0.568,8.938 1.703,13.318c1.135,4.381 2.388,8.722 3.758,13.023c1.37,4.302 2.623,8.603 3.758,12.905c1.135,4.301 1.703,8.662 1.703,13.082c0,3.315 -1.879,4.972 -5.637,4.972c-2.271,0 -4.287,-1.578 -6.048,-4.735c-1.762,-3.157 -3.288,-7.183 -4.58,-12.076c-1.292,-4.893 -2.349,-10.221 -3.171,-15.983c-0.822,-5.761 -1.487,-11.286 -1.996,-16.574c-0.509,-5.288 -0.862,-9.945 -1.057,-13.97c-0.196,-4.026 -0.294,-6.67 -0.294,-7.932Z" style="fill:#4fcfc6;fill-rule:nonzero;stroke:#33ccc2;stroke-width:3.13px;"/><path d="M354.59,89.821c-2.975,2.052 -5.539,3.887 -7.692,5.505c-2.153,1.618 -4.247,2.98 -6.283,4.085c-2.035,1.105 -4.208,1.934 -6.517,2.486c-2.31,0.553 -5.148,0.829 -8.514,0.829c-7.281,0 -12.683,-1.954 -16.206,-5.861c-3.524,-3.906 -5.285,-9.727 -5.285,-17.462c0,-2.999 0.391,-6.117 1.174,-9.353c0.783,-3.236 1.938,-6.452 3.465,-9.649c1.526,-3.196 3.347,-6.235 5.46,-9.116c2.114,-2.88 4.502,-5.426 7.164,-7.636c2.662,-2.21 5.5,-3.966 8.514,-5.268c3.014,-1.302 6.205,-1.954 9.571,-1.954c5.637,0.553 10.06,1.954 13.27,4.203c3.21,2.25 5.637,5.13 7.281,8.643c1.645,3.512 2.78,7.419 3.406,11.72c0.626,4.302 1.116,8.741 1.468,13.319c0.352,4.578 0.802,9.156 1.351,13.733c0.548,4.578 1.683,8.801 3.405,12.668c-1.018,2.605 -1.977,4.44 -2.877,5.505c-0.9,1.066 -1.899,1.243 -2.995,0.533c-1.096,-0.71 -2.368,-2.447 -3.816,-5.209c-1.449,-2.763 -3.23,-6.669 -5.344,-11.721Zm-40.515,-10.181c0,4.499 0.842,7.794 2.525,9.885c1.683,2.092 4.678,3.138 8.984,3.138c3.21,0 6.282,-0.573 9.218,-1.717c2.936,-1.144 5.5,-2.723 7.692,-4.736c2.193,-2.012 3.954,-4.439 5.285,-7.281c1.331,-2.841 1.996,-5.998 1.996,-9.471c0,-1.42 0.04,-3.413 0.118,-5.978c0.078,-2.566 -0.078,-5.111 -0.47,-7.637c-0.391,-2.525 -1.135,-4.716 -2.231,-6.57c-1.096,-1.855 -2.74,-2.782 -4.932,-2.782c-4.072,0 -7.829,1.045 -11.274,3.137c-3.445,2.091 -6.42,4.755 -8.925,7.991c-2.506,3.236 -4.463,6.808 -5.872,10.714c-1.409,3.907 -2.114,7.676 -2.114,11.307Z" style="fill:#4fcfc6;fill-rule:nonzero;stroke:#33ccc2;stroke-width:3.13px;"/><path d="M399.568,99.766c1.253,-0.868 2.76,-1.993 4.522,-3.374c1.761,-1.381 3.542,-2.861 5.343,-4.44c1.801,-1.578 3.484,-3.236 5.05,-4.972c1.566,-1.736 2.799,-3.414 3.699,-5.032c0.9,-1.618 1.35,-3.137 1.35,-4.558c0,-1.42 -0.704,-2.604 -2.113,-3.551c-2.506,0 -5.246,0.098 -8.221,0.296c-2.975,0.197 -5.95,0.276 -8.925,0.236c-2.975,-0.039 -5.852,-0.296 -8.632,-0.769c-2.779,-0.474 -5.265,-1.342 -7.457,-2.605c-2.192,-1.263 -3.934,-3.058 -5.226,-5.386c-1.291,-2.329 -1.937,-5.308 -1.937,-8.939c0,-4.262 0.802,-8.11 2.407,-11.543c1.605,-3.433 3.738,-6.472 6.4,-9.116c2.662,-2.644 5.657,-4.972 8.984,-6.985c3.328,-2.013 6.674,-3.729 10.041,-5.15c2.036,0.553 3.914,1.539 5.637,2.96c1.722,1.42 3.21,2.999 4.462,4.735c-0.548,1.737 -1.624,3.079 -3.229,4.026c-1.605,0.947 -3.445,1.776 -5.52,2.486c-2.074,0.71 -4.247,1.46 -6.517,2.249c-2.271,0.79 -4.326,1.835 -6.166,3.138c-1.839,1.302 -3.386,2.999 -4.638,5.09c-1.253,2.092 -1.879,4.835 -1.879,8.228c0,2.526 0.626,4.381 1.879,5.565c1.252,1.184 2.896,1.993 4.932,2.427c2.036,0.434 4.345,0.592 6.929,0.473c2.583,-0.118 5.226,-0.296 7.927,-0.532c2.701,-0.237 5.343,-0.375 7.927,-0.415c2.583,-0.039 4.893,0.276 6.928,0.947c2.036,0.671 3.66,1.756 4.874,3.256c1.213,1.5 1.82,3.71 1.82,6.63c0,1.263 -0.411,2.881 -1.233,4.854c-0.822,1.973 -1.918,4.084 -3.288,6.334c-1.37,2.249 -2.975,4.479 -4.815,6.689c-1.84,2.21 -3.758,4.203 -5.754,5.978c-1.997,1.776 -3.993,3.236 -5.99,4.381c-1.996,1.144 -3.855,1.717 -5.578,1.717c-1.644,0 -2.72,-0.592 -3.229,-1.776c-0.509,-1.184 -0.764,-2.368 -0.764,-3.552Z" style="fill:#4fcfc6;fill-rule:nonzero;stroke:#33ccc2;stroke-width:3.13px;"/><path d="M432.333,45.425c0,-0.237 0.039,-0.434 0.117,-0.592c0,-0.158 0.04,-0.355 0.118,-0.592c0.313,-0.394 0.783,-0.908 1.409,-1.539c0.626,-0.631 1.018,-0.947 1.174,-0.947l23.605,0c0,-0.868 -0.117,-2.249 -0.352,-4.144c-0.235,-1.894 -0.45,-3.985 -0.646,-6.274c-0.196,-2.289 -0.255,-4.677 -0.176,-7.163c0.078,-2.486 0.411,-4.736 0.998,-6.748c0.587,-2.013 1.527,-3.67 2.818,-4.973c1.292,-1.302 3.112,-1.953 5.461,-1.953c0,7.972 0.548,14.365 1.644,19.179c1.096,4.815 2.564,8.524 4.404,11.129c1.84,2.604 3.934,4.301 6.283,5.091c2.349,0.789 4.756,1.124 7.222,1.006c2.466,-0.118 4.874,-0.493 7.223,-1.125c2.348,-0.631 4.443,-1.065 6.282,-1.302c1.84,-0.237 3.308,-0.059 4.404,0.533c1.096,0.592 1.644,1.993 1.644,4.203c0,1.657 -0.372,2.841 -1.115,3.551c-0.744,0.711 -2.173,1.263 -4.287,1.658c-0.626,0.079 -1.663,0.217 -3.112,0.414c-1.448,0.197 -3.073,0.375 -4.873,0.533c-1.801,0.158 -3.719,0.335 -5.755,0.533c-2.035,0.197 -3.953,0.374 -5.754,0.532c-1.801,0.158 -3.445,0.257 -4.932,0.296c-1.488,0.04 -2.584,0.059 -3.289,0.059c0,0.395 -0.039,1.066 -0.117,2.013c-0.078,0.947 -0.117,1.579 -0.117,1.894c0,3.473 0.548,6.847 1.644,10.123c1.096,3.275 2.29,6.531 3.581,9.767c1.292,3.236 2.486,6.472 3.582,9.708c1.096,3.236 1.644,6.59 1.644,10.063c0,0.631 -0.058,1.283 -0.176,1.953c-0.117,0.671 -0.352,1.263 -0.704,1.776c-0.353,0.513 -0.862,0.908 -1.527,1.184c-0.666,0.276 -1.585,0.217 -2.76,-0.177c-2.975,-0.79 -5.187,-2.487 -6.635,-5.091c-1.448,-2.605 -2.525,-5.703 -3.229,-9.294c-0.705,-3.591 -1.175,-7.399 -1.41,-11.424c-0.235,-4.026 -0.606,-7.794 -1.115,-11.307c-0.509,-3.512 -1.312,-6.511 -2.408,-8.997c-1.096,-2.487 -2.857,-4.006 -5.284,-4.558l-22.666,-5.209c-0.313,0 -0.782,-0.336 -1.409,-1.007c-0.626,-0.671 -1.018,-1.164 -1.174,-1.48c-0.078,-0.158 -0.118,-0.355 -0.118,-0.592c-0.078,-0.157 -0.117,-0.394 -0.117,-0.71Z" style="fill:#4fcfc6;fill-rule:nonzero;stroke:#33ccc2;stroke-width:3.13px;"/><path d="M508.431,43.886c0,-0.71 0.02,-1.44 0.059,-2.19c0.039,-0.75 0.196,-1.46 0.47,-2.131c0.274,-0.671 0.665,-1.184 1.174,-1.539c0.509,-0.356 1.273,-0.533 2.29,-0.533l0.705,0c0.235,0.079 0.431,0.118 0.587,0.118c1.488,2.052 2.779,4.677 3.876,7.873c1.096,3.197 2.152,6.591 3.17,10.182c1.018,3.591 2.114,7.222 3.288,10.892c1.175,3.67 2.702,6.965 4.58,9.885c1.879,2.92 4.189,5.249 6.929,6.985c2.74,1.737 6.146,2.486 10.217,2.25c1.801,0 2.975,-0.987 3.523,-2.96c0.548,-1.973 0.842,-4.499 0.881,-7.577c0.039,-3.078 -0.039,-6.472 -0.235,-10.182c-0.196,-3.709 -0.196,-7.241 0,-10.596c0.196,-3.354 0.783,-6.294 1.762,-8.82c0.978,-2.525 2.681,-4.222 5.108,-5.09c1.018,2.052 1.86,5.268 2.525,9.648c0.665,4.381 1.155,9.432 1.468,15.154c0.313,5.723 0.47,11.918 0.47,18.588c0,6.669 -0.157,13.299 -0.47,19.889c-0.313,6.59 -0.783,12.924 -1.409,19.002c-0.627,6.077 -1.331,11.405 -2.114,15.982c-0.783,4.578 -1.703,8.189 -2.76,10.833c-1.057,2.644 -2.172,3.769 -3.347,3.374c-1.644,-1.578 -2.916,-3.631 -3.816,-6.156c-0.901,-2.526 -1.527,-5.328 -1.879,-8.406c-0.353,-3.078 -0.49,-6.334 -0.411,-9.767c0.078,-3.433 0.215,-6.886 0.411,-10.359c0.195,-3.473 0.43,-6.867 0.704,-10.182c0.274,-3.315 0.411,-6.353 0.411,-9.116c-2.818,0.237 -5.695,-0.197 -8.631,-1.302c-2.936,-1.105 -5.813,-2.822 -8.632,-5.15c-2.818,-2.328 -5.5,-5.15 -8.044,-8.465c-2.545,-3.315 -4.776,-7.064 -6.694,-11.247c-1.918,-4.183 -3.425,-8.702 -4.521,-13.556c-1.096,-4.854 -1.645,-9.964 -1.645,-15.331Z" style="fill:#4fcfc6;fill-rule:nonzero;stroke:#33ccc2;stroke-width:3.13px;"/><path d="M613.889,34.06c-0.313,-1.105 -0.92,-1.855 -1.82,-2.25c-0.901,-0.394 -1.879,-0.611 -2.936,-0.651c-1.057,-0.039 -2.094,0.02 -3.112,0.178c-1.018,0.157 -1.801,0.236 -2.349,0.236c-1.331,-0.079 -3.64,-0.236 -6.929,-0.473c-3.288,-0.237 -6.831,-0.493 -10.628,-0.77c-3.797,-0.276 -7.339,-0.552 -10.628,-0.828c-3.288,-0.277 -5.597,-0.454 -6.928,-0.533c0,-0.158 -0.039,-0.553 -0.118,-1.184c-0.078,-0.631 -0.117,-1.066 -0.117,-1.302c0,-1.105 0.098,-2.092 0.293,-2.96c0.196,-0.868 0.959,-1.539 2.29,-2.013c7.36,0.158 14.621,0.119 21.785,-0.118c7.163,-0.237 14.327,-0.572 21.491,-1.006c7.163,-0.435 14.327,-0.849 21.49,-1.244c7.164,-0.394 14.386,-0.591 21.667,-0.591c0,2.999 -0.704,5.189 -2.114,6.57c-1.409,1.381 -3.151,2.309 -5.225,2.782c-2.075,0.474 -4.365,0.671 -6.87,0.592c-2.506,-0.079 -4.913,-0.039 -7.223,0.119c-2.309,0.158 -4.345,0.611 -6.106,1.361c-1.762,0.75 -2.917,2.111 -3.465,4.085c-0.078,0.473 -0.156,1.381 -0.235,2.723c-0.078,1.341 -0.137,2.762 -0.176,4.262c-0.039,1.499 -0.078,2.9 -0.117,4.202c-0.039,1.303 -0.059,2.23 -0.059,2.783c0,4.498 0.568,8.938 1.703,13.318c1.135,4.381 2.388,8.722 3.758,13.023c1.37,4.302 2.623,8.603 3.758,12.905c1.135,4.301 1.703,8.662 1.703,13.082c0,3.315 -1.879,4.972 -5.637,4.972c-2.271,0 -4.287,-1.578 -6.048,-4.735c-1.762,-3.157 -3.289,-7.183 -4.58,-12.076c-1.292,-4.893 -2.349,-10.221 -3.171,-15.983c-0.822,-5.761 -1.488,-11.286 -1.996,-16.574c-0.509,-5.288 -0.862,-9.945 -1.057,-13.97c-0.196,-4.026 -0.294,-6.67 -0.294,-7.932Z" style="fill:#4fcfc6;fill-rule:nonzero;stroke:#33ccc2;stroke-width:3.13px;"/><path d="M714.414,89.821c-2.975,2.052 -5.539,3.887 -7.692,5.505c-2.153,1.618 -4.247,2.98 -6.283,4.085c-2.035,1.105 -4.208,1.934 -6.517,2.486c-2.31,0.553 -5.148,0.829 -8.514,0.829c-7.282,0 -12.684,-1.954 -16.207,-5.861c-3.523,-3.906 -5.284,-9.727 -5.284,-17.462c0,-2.999 0.391,-6.117 1.174,-9.353c0.783,-3.236 1.938,-6.452 3.464,-9.649c1.527,-3.196 3.347,-6.235 5.461,-9.116c2.114,-2.88 4.502,-5.426 7.164,-7.636c2.662,-2.21 5.5,-3.966 8.514,-5.268c3.014,-1.302 6.204,-1.954 9.571,-1.954c5.637,0.553 10.06,1.954 13.27,4.203c3.21,2.25 5.637,5.13 7.281,8.643c1.644,3.512 2.78,7.419 3.406,11.72c0.626,4.302 1.116,8.741 1.468,13.319c0.352,4.578 0.802,9.156 1.35,13.733c0.548,4.578 1.684,8.801 3.406,12.668c-1.018,2.605 -1.977,4.44 -2.877,5.505c-0.901,1.066 -1.899,1.243 -2.995,0.533c-1.096,-0.71 -2.368,-2.447 -3.816,-5.209c-1.449,-2.763 -3.23,-6.669 -5.344,-11.721Zm-40.515,-10.181c0,4.499 0.841,7.794 2.525,9.885c1.683,2.092 4.678,3.138 8.984,3.138c3.209,0 6.282,-0.573 9.218,-1.717c2.936,-1.144 5.5,-2.723 7.692,-4.736c2.192,-2.012 3.954,-4.439 5.285,-7.281c1.331,-2.841 1.996,-5.998 1.996,-9.471c0,-1.42 0.039,-3.413 0.118,-5.978c0.078,-2.566 -0.079,-5.111 -0.47,-7.637c-0.391,-2.525 -1.135,-4.716 -2.231,-6.57c-1.096,-1.855 -2.74,-2.782 -4.933,-2.782c-4.071,0 -7.829,1.045 -11.273,3.137c-3.445,2.091 -6.42,4.755 -8.926,7.991c-2.505,3.236 -4.462,6.808 -5.871,10.714c-1.41,3.907 -2.114,7.676 -2.114,11.307Z" style="fill:#4fcfc6;fill-rule:nonzero;stroke:#33ccc2;stroke-width:3.13px;"/><path d="M759.392,99.766c1.253,-0.868 2.76,-1.993 4.521,-3.374c1.762,-1.381 3.543,-2.861 5.344,-4.44c1.8,-1.578 3.484,-3.236 5.05,-4.972c1.565,-1.736 2.798,-3.414 3.699,-5.032c0.9,-1.618 1.35,-3.137 1.35,-4.558c0,-1.42 -0.704,-2.604 -2.114,-3.551c-2.505,0 -5.245,0.098 -8.22,0.296c-2.975,0.197 -5.95,0.276 -8.925,0.236c-2.975,-0.039 -5.852,-0.296 -8.632,-0.769c-2.779,-0.474 -5.265,-1.342 -7.457,-2.605c-2.192,-1.263 -3.934,-3.058 -5.226,-5.386c-1.292,-2.329 -1.938,-5.308 -1.938,-8.939c0,-4.262 0.803,-8.11 2.408,-11.543c1.605,-3.433 3.738,-6.472 6.4,-9.116c2.662,-2.644 5.657,-4.972 8.984,-6.985c3.327,-2.013 6.674,-3.729 10.041,-5.15c2.035,0.553 3.914,1.539 5.637,2.96c1.722,1.42 3.21,2.999 4.462,4.735c-0.548,1.737 -1.624,3.079 -3.229,4.026c-1.605,0.947 -3.445,1.776 -5.52,2.486c-2.074,0.71 -4.247,1.46 -6.517,2.249c-2.271,0.79 -4.326,1.835 -6.166,3.138c-1.84,1.302 -3.386,2.999 -4.638,5.09c-1.253,2.092 -1.879,4.835 -1.879,8.228c0,2.526 0.626,4.381 1.879,5.565c1.252,1.184 2.896,1.993 4.932,2.427c2.035,0.434 4.345,0.592 6.929,0.473c2.583,-0.118 5.225,-0.296 7.926,-0.532c2.702,-0.237 5.344,-0.375 7.927,-0.415c2.584,-0.039 4.894,0.276 6.929,0.947c2.036,0.671 3.66,1.756 4.874,3.256c1.213,1.5 1.82,3.71 1.82,6.63c0,1.263 -0.411,2.881 -1.233,4.854c-0.822,1.973 -1.918,4.084 -3.288,6.334c-1.37,2.249 -2.975,4.479 -4.815,6.689c-1.84,2.21 -3.758,4.203 -5.755,5.978c-1.996,1.776 -3.992,3.236 -5.989,4.381c-1.996,1.144 -3.856,1.717 -5.578,1.717c-1.644,0 -2.721,-0.592 -3.229,-1.776c-0.509,-1.184 -0.764,-2.368 -0.764,-3.552Z" style="fill:#4fcfc6;fill-rule:nonzero;stroke:#33ccc2;stroke-width:3.13px;"/><path d="M792.157,45.425c0,-0.237 0.039,-0.434 0.117,-0.592c0,-0.158 0.039,-0.355 0.118,-0.592c0.313,-0.394 0.783,-0.908 1.409,-1.539c0.626,-0.631 1.018,-0.947 1.174,-0.947l23.605,0c0,-0.868 -0.118,-2.249 -0.352,-4.144c-0.235,-1.894 -0.451,-3.985 -0.646,-6.274c-0.196,-2.289 -0.255,-4.677 -0.176,-7.163c0.078,-2.486 0.411,-4.736 0.998,-6.748c0.587,-2.013 1.526,-3.67 2.818,-4.973c1.292,-1.302 3.112,-1.953 5.461,-1.953c0,7.972 0.548,14.365 1.644,19.179c1.096,4.815 2.564,8.524 4.404,11.129c1.84,2.604 3.934,4.301 6.283,5.091c2.349,0.789 4.756,1.124 7.222,1.006c2.466,-0.118 4.874,-0.493 7.222,-1.125c2.349,-0.631 4.443,-1.065 6.283,-1.302c1.84,-0.237 3.308,-0.059 4.404,0.533c1.096,0.592 1.644,1.993 1.644,4.203c0,1.657 -0.372,2.841 -1.115,3.551c-0.744,0.711 -2.173,1.263 -4.287,1.658c-0.626,0.079 -1.664,0.217 -3.112,0.414c-1.448,0.197 -3.073,0.375 -4.874,0.533c-1.8,0.158 -3.718,0.335 -5.754,0.533c-2.035,0.197 -3.954,0.374 -5.754,0.532c-1.801,0.158 -3.445,0.257 -4.933,0.296c-1.487,0.04 -2.583,0.059 -3.288,0.059c0,0.395 -0.039,1.066 -0.117,2.013c-0.078,0.947 -0.118,1.579 -0.118,1.894c0,3.473 0.548,6.847 1.644,10.123c1.097,3.275 2.29,6.531 3.582,9.767c1.292,3.236 2.486,6.472 3.582,9.708c1.096,3.236 1.644,6.59 1.644,10.063c0,0.631 -0.059,1.283 -0.176,1.953c-0.117,0.671 -0.352,1.263 -0.705,1.776c-0.352,0.513 -0.861,0.908 -1.526,1.184c-0.666,0.276 -1.586,0.217 -2.76,-0.177c-2.975,-0.79 -5.187,-2.487 -6.635,-5.091c-1.449,-2.605 -2.525,-5.703 -3.23,-9.294c-0.704,-3.591 -1.174,-7.399 -1.409,-11.424c-0.235,-4.026 -0.607,-7.794 -1.116,-11.307c-0.508,-3.512 -1.311,-6.511 -2.407,-8.997c-1.096,-2.487 -2.858,-4.006 -5.285,-4.558l-22.665,-5.209c-0.313,0 -0.783,-0.336 -1.409,-1.007c-0.626,-0.671 -1.018,-1.164 -1.174,-1.48c-0.079,-0.158 -0.118,-0.355 -0.118,-0.592c-0.078,-0.157 -0.117,-0.394 -0.117,-0.71Z" style="fill:#4fcfc6;fill-rule:nonzero;stroke:#33ccc2;stroke-width:3.13px;"/><path d="M870.252,72.181c0,-4.262 0.509,-8.524 1.526,-12.786c1.018,-4.262 2.643,-8.09 4.874,-11.484c2.231,-3.394 5.128,-6.156 8.69,-8.287c3.563,-2.131 7.888,-3.197 12.977,-3.197c2.897,0 5.441,0.533 7.633,1.599c2.192,1.065 4.032,2.466 5.52,4.203c1.487,1.736 2.603,3.768 3.347,6.097c0.743,2.328 1.115,4.755 1.115,7.281c0,4.025 -0.92,7.932 -2.759,11.72c-1.84,3.789 -4.306,7.123 -7.399,10.004c-3.092,2.881 -6.635,5.051 -10.628,6.512c-3.993,1.46 -8.064,1.795 -12.213,1.006c0.078,2.289 0.841,4.124 2.29,5.505c1.448,1.381 3.19,2.427 5.226,3.137c2.035,0.711 4.149,1.165 6.341,1.362c2.192,0.197 4.15,0.296 5.872,0.296c1.801,0 3.484,-0.158 5.05,-0.474c1.566,-0.315 3.131,-0.671 4.697,-1.065c1.566,-0.395 3.151,-0.75 4.756,-1.066c1.605,-0.315 3.308,-0.473 5.109,-0.473c0.705,0 1.409,0.039 2.114,0.118c0.704,0.079 1.37,0.257 1.996,0.533c0.626,0.276 1.135,0.71 1.527,1.302c0.391,0.592 0.587,1.322 0.587,2.19c0,1.5 -0.548,2.743 -1.644,3.73c-1.096,0.986 -2.486,1.835 -4.169,2.545c-1.683,0.71 -3.543,1.243 -5.578,1.598c-2.036,0.355 -4.013,0.632 -5.931,0.829c-1.918,0.197 -3.679,0.316 -5.284,0.355c-1.605,0.04 -2.799,0.059 -3.582,0.059c-5.011,0 -9.513,-0.809 -13.505,-2.427c-3.993,-1.618 -7.36,-3.867 -10.1,-6.748c-2.74,-2.881 -4.834,-6.353 -6.283,-10.418c-1.448,-4.065 -2.172,-8.583 -2.172,-13.556Zm12.448,-7.695c0,2.762 0.372,4.775 1.116,6.038c0.743,1.263 2.564,1.894 5.46,1.894c2.036,0 4.032,-0.375 5.99,-1.125c1.957,-0.75 3.738,-1.795 5.343,-3.137c1.605,-1.342 2.877,-2.92 3.817,-4.736c0.939,-1.815 1.409,-3.788 1.409,-5.919c0,-1.184 -0.098,-2.407 -0.294,-3.67c-0.195,-1.263 -0.606,-2.427 -1.233,-3.493c-0.626,-1.065 -1.429,-1.933 -2.407,-2.604c-0.979,-0.671 -2.251,-1.007 -3.817,-1.007c-2.349,0 -4.482,0.533 -6.4,1.599c-1.918,1.065 -3.543,2.446 -4.874,4.143c-1.331,1.697 -2.348,3.591 -3.053,5.683c-0.705,2.092 -1.057,4.203 -1.057,6.334Z" style="fill:#4fcfc6;fill-rule:nonzero;stroke:#33ccc2;stroke-width:3.13px;"/></g><g id="logotype2"><rect x="0" y="144.506" width="198.75" height="38.494" style="fill:#33ccc2;"/><rect x="0" y="98.103" width="198.75" height="38.494" style="fill:#4fcfc6;"/><path d="M169.262,30.607l-25.878,9.167c1.095,3.001 1.744,6.165 1.744,9.451c0,14.967 -12.128,27.298 -27.298,27.298c-12.006,0 -22.227,-7.869 -25.878,-18.618l-91.952,32.166l198.75,0c0,-21.782 -10.708,-42.104 -29.488,-59.464Z" style="fill:#33ccc2;fill-rule:nonzero;"/><path d="M109.961,31.54c-6.611,3.001 -11.357,9.775 -11.357,17.523c0,10.586 8.68,19.226 19.226,19.226c10.546,0 19.226,-8.68 19.226,-19.226c0,-10.547 -8.517,-19.227 -19.226,-19.227c-5.029,-15.13 -20.524,-28.231 -21.294,-28.88c-1.744,-1.42 -4.259,-1.258 -5.679,0.486c-1.419,1.744 -1.257,4.259 0.487,5.679c4.421,3.61 14.805,14.035 18.617,24.419Z" style="fill:#de4573;fill-rule:nonzero;"/></g></g></svg>