<?xml version="1.0" encoding="UTF-8" standalone="no"?><!DOCTYPE svg PUBLIC "-//W3C//DTD SVG 1.1//EN" "http://www.w3.org/Graphics/SVG/1.1/DTD/svg11.dtd"><svg width="100%" height="100%" viewBox="0 0 827 355" version="1.1" xmlns="http://www.w3.org/2000/svg" xmlns:xlink="http://www.w3.org/1999/xlink" xml:space="preserve" xmlns:serif="http://www.serif.com/" style="fill-rule:evenodd;clip-rule:evenodd;stroke-linecap:round;stroke-linejoin:round;stroke-miterlimit:1.41421;"><rect id="bg" x="-460.63" y="-442.913" width="1748.03" height="1240.16" style="fill:#ebebeb;"/><g><g><path d="M324.767,283.029l0,-18.018l-3.278,0l0,-1.794l3.278,0l0,-2.399c0,-2.026 0.516,-3.583 1.547,-4.669c1.032,-1.087 2.469,-1.63 4.312,-1.63c0.83,0 1.606,0.104 2.326,0.312l-0.165,1.831c-0.61,-0.147 -1.276,-0.22 -1.996,-0.22c-1.208,0 -2.148,0.375 -2.82,1.126c-0.671,0.751 -1.007,1.816 -1.007,3.195l0,2.454l4.724,0l0,1.794l-4.724,0l0,18.018l-2.197,0Z" style="fill:#de4573;fill-rule:nonzero;"/><path d="M349.05,283.029c-0.219,-0.623 -0.36,-1.544 -0.421,-2.765c-0.769,1.001 -1.748,1.773 -2.939,2.316c-1.19,0.543 -2.45,0.815 -3.781,0.815c-1.904,0 -3.445,-0.531 -4.623,-1.593c-1.178,-1.062 -1.767,-2.405 -1.767,-4.028c0,-1.929 0.803,-3.455 2.408,-4.578c1.605,-1.123 3.842,-1.685 6.711,-1.685l3.973,0l0,-2.252c0,-1.416 -0.436,-2.53 -1.309,-3.341c-0.873,-0.812 -2.146,-1.218 -3.818,-1.218c-1.526,0 -2.789,0.391 -3.79,1.172c-1.001,0.781 -1.502,1.721 -1.502,2.82l-2.197,-0.019c0,-1.574 0.732,-2.939 2.197,-4.092c1.465,-1.154 3.266,-1.73 5.402,-1.73c2.209,0 3.952,0.552 5.228,1.657c1.275,1.104 1.931,2.646 1.968,4.623l0,9.375c0,1.917 0.201,3.351 0.604,4.303l0,0.22l-2.344,0Zm-6.884,-1.575c1.465,0 2.774,-0.354 3.927,-1.062c1.154,-0.708 1.993,-1.654 2.518,-2.838l0,-4.358l-3.918,0c-2.186,0.024 -3.894,0.424 -5.127,1.199c-1.233,0.775 -1.85,1.841 -1.85,3.196c0,1.11 0.412,2.032 1.236,2.764c0.824,0.733 1.895,1.099 3.214,1.099Z" style="fill:#de4573;fill-rule:nonzero;"/><path d="M364.893,281.546c1.526,0 2.804,-0.431 3.836,-1.291c1.031,-0.861 1.59,-1.975 1.675,-3.342l2.106,0c-0.061,1.209 -0.44,2.31 -1.135,3.305c-0.696,0.995 -1.621,1.773 -2.774,2.335c-1.154,0.561 -2.39,0.842 -3.708,0.842c-2.6,0 -4.66,-0.903 -6.18,-2.71c-1.52,-1.807 -2.28,-4.236 -2.28,-7.288l0,-0.659c0,-1.953 0.342,-3.68 1.026,-5.182c0.683,-1.501 1.663,-2.661 2.939,-3.479c1.275,-0.818 2.767,-1.226 4.476,-1.226c2.173,0 3.965,0.647 5.375,1.94c1.409,1.294 2.163,2.997 2.261,5.109l-2.106,0c-0.097,-1.55 -0.656,-2.801 -1.675,-3.754c-1.019,-0.952 -2.304,-1.428 -3.855,-1.428c-1.977,0 -3.512,0.714 -4.605,2.143c-1.092,1.428 -1.638,3.43 -1.638,6.005l0,0.641c0,2.527 0.546,4.499 1.638,5.915c1.093,1.416 2.634,2.124 4.624,2.124Z" style="fill:#de4573;fill-rule:nonzero;"/><path d="M385.496,283.395c-1.685,0 -3.208,-0.415 -4.569,-1.245c-1.361,-0.83 -2.42,-1.987 -3.177,-3.47c-0.756,-1.483 -1.135,-3.146 -1.135,-4.99l0,-0.787c0,-1.904 0.369,-3.619 1.108,-5.145c0.738,-1.526 1.767,-2.725 3.085,-3.598c1.319,-0.873 2.747,-1.309 4.285,-1.309c2.405,0 4.312,0.82 5.722,2.462c1.41,1.642 2.115,3.885 2.115,6.729l0,1.227l-14.136,0l0,0.421c0,2.246 0.644,4.117 1.932,5.613c1.288,1.495 2.908,2.243 4.861,2.243c1.172,0 2.207,-0.214 3.104,-0.641c0.897,-0.428 1.712,-1.111 2.444,-2.051l1.374,1.044c-1.612,2.331 -3.949,3.497 -7.013,3.497Zm-0.403,-18.677c-1.648,0 -3.037,0.604 -4.166,1.813c-1.129,1.208 -1.816,2.832 -2.06,4.871l11.884,0l0,-0.238c-0.061,-1.905 -0.604,-3.455 -1.63,-4.651c-1.025,-1.197 -2.368,-1.795 -4.028,-1.795Z" style="fill:#de4573;fill-rule:nonzero;"/><path d="M414.082,273.324c0,3.089 -0.683,5.539 -2.051,7.352c-1.367,1.813 -3.204,2.719 -5.511,2.719c-2.759,0 -4.846,-1.025 -6.262,-3.076l-0.092,2.71l-2.051,0l0,-28.125l2.179,0l0,11.188c1.392,-2.161 3.455,-3.241 6.189,-3.241c2.344,0 4.196,0.894 5.558,2.682c1.361,1.788 2.041,4.276 2.041,7.462l0,0.329Zm-2.197,-0.384c0,-2.613 -0.507,-4.63 -1.52,-6.052c-1.013,-1.422 -2.441,-2.133 -4.285,-2.133c-1.403,0 -2.594,0.345 -3.57,1.034c-0.977,0.69 -1.715,1.7 -2.216,3.031l0,8.935c1.099,2.491 3.04,3.736 5.823,3.736c1.807,0 3.22,-0.714 4.239,-2.143c1.019,-1.428 1.529,-3.564 1.529,-6.408Z" style="fill:#de4573;fill-rule:nonzero;"/><path d="M418.645,272.83c0,-1.905 0.369,-3.62 1.108,-5.145c0.738,-1.526 1.782,-2.713 3.131,-3.562c1.349,-0.848 2.878,-1.272 4.587,-1.272c2.637,0 4.773,0.924 6.409,2.774c1.635,1.849 2.453,4.3 2.453,7.351l0,0.458c0,1.917 -0.369,3.641 -1.108,5.173c-0.738,1.532 -1.779,2.713 -3.122,3.543c-1.342,0.83 -2.874,1.245 -4.596,1.245c-2.624,0 -4.757,-0.925 -6.399,-2.774c-1.642,-1.849 -2.463,-4.3 -2.463,-7.352l0,-0.439Zm2.197,0.604c0,2.368 0.614,4.312 1.841,5.832c1.226,1.52 2.835,2.28 4.824,2.28c1.978,0 3.58,-0.76 4.807,-2.28c1.227,-1.52 1.84,-3.525 1.84,-6.015l0,-0.421c0,-1.514 -0.281,-2.899 -0.842,-4.157c-0.562,-1.257 -1.349,-2.231 -2.362,-2.92c-1.013,-0.69 -2.173,-1.035 -3.479,-1.035c-1.953,0 -3.546,0.766 -4.779,2.298c-1.233,1.532 -1.85,3.537 -1.85,6.015l0,0.403Z" style="fill:#de4573;fill-rule:nonzero;"/><path d="M440.585,272.83c0,-1.905 0.369,-3.62 1.108,-5.145c0.738,-1.526 1.782,-2.713 3.131,-3.562c1.349,-0.848 2.878,-1.272 4.587,-1.272c2.636,0 4.773,0.924 6.408,2.774c1.636,1.849 2.454,4.3 2.454,7.351l0,0.458c0,1.917 -0.369,3.641 -1.108,5.173c-0.738,1.532 -1.779,2.713 -3.122,3.543c-1.343,0.83 -2.875,1.245 -4.596,1.245c-2.624,0 -4.758,-0.925 -6.399,-2.774c-1.642,-1.849 -2.463,-4.3 -2.463,-7.352l0,-0.439Zm2.197,0.604c0,2.368 0.614,4.312 1.84,5.832c1.227,1.52 2.835,2.28 4.825,2.28c1.978,0 3.58,-0.76 4.807,-2.28c1.227,-1.52 1.84,-3.525 1.84,-6.015l0,-0.421c0,-1.514 -0.281,-2.899 -0.842,-4.157c-0.562,-1.257 -1.349,-2.231 -2.362,-2.92c-1.014,-0.69 -2.173,-1.035 -3.479,-1.035c-1.954,0 -3.547,0.766 -4.779,2.298c-1.233,1.532 -1.85,3.537 -1.85,6.015l0,0.403Z" style="fill:#de4573;fill-rule:nonzero;"/><path d="M468.439,273.05l-2.509,2.417l0,7.562l-2.197,0l0,-28.125l2.197,0l0,17.999l2.069,-2.234l7.581,-7.452l2.765,0l-8.405,8.349l9.137,11.463l-2.618,0l-8.02,-9.979Z" style="fill:#de4573;fill-rule:nonzero;"/><path d="M482.835,281.71c0,-0.427 0.137,-0.79 0.412,-1.089c0.274,-0.299 0.656,-0.449 1.144,-0.449c0.488,0 0.873,0.15 1.154,0.449c0.28,0.299 0.421,0.662 0.421,1.089c0,0.428 -0.141,0.779 -0.421,1.053c-0.281,0.275 -0.666,0.412 -1.154,0.412c-0.488,0 -0.87,-0.137 -1.144,-0.412c-0.275,-0.274 -0.412,-0.625 -0.412,-1.053Z" style="fill:#de4573;fill-rule:nonzero;"/><path d="M500.252,281.546c1.526,0 2.804,-0.431 3.836,-1.291c1.031,-0.861 1.59,-1.975 1.675,-3.342l2.106,0c-0.061,1.209 -0.44,2.31 -1.135,3.305c-0.696,0.995 -1.621,1.773 -2.774,2.335c-1.154,0.561 -2.39,0.842 -3.708,0.842c-2.6,0 -4.66,-0.903 -6.18,-2.71c-1.52,-1.807 -2.28,-4.236 -2.28,-7.288l0,-0.659c0,-1.953 0.342,-3.68 1.026,-5.182c0.683,-1.501 1.663,-2.661 2.938,-3.479c1.276,-0.818 2.768,-1.226 4.477,-1.226c2.173,0 3.965,0.647 5.374,1.94c1.41,1.294 2.164,2.997 2.262,5.109l-2.106,0c-0.098,-1.55 -0.656,-2.801 -1.675,-3.754c-1.02,-0.952 -2.304,-1.428 -3.855,-1.428c-1.977,0 -3.512,0.714 -4.605,2.143c-1.092,1.428 -1.639,3.43 -1.639,6.005l0,0.641c0,2.527 0.547,4.499 1.639,5.915c1.093,1.416 2.634,2.124 4.624,2.124Z" style="fill:#de4573;fill-rule:nonzero;"/><path d="M511.974,272.83c0,-1.905 0.369,-3.62 1.108,-5.145c0.738,-1.526 1.782,-2.713 3.131,-3.562c1.349,-0.848 2.878,-1.272 4.587,-1.272c2.636,0 4.773,0.924 6.408,2.774c1.636,1.849 2.454,4.3 2.454,7.351l0,0.458c0,1.917 -0.369,3.641 -1.108,5.173c-0.738,1.532 -1.779,2.713 -3.122,3.543c-1.342,0.83 -2.874,1.245 -4.596,1.245c-2.624,0 -4.757,-0.925 -6.399,-2.774c-1.642,-1.849 -2.463,-4.3 -2.463,-7.352l0,-0.439Zm2.197,0.604c0,2.368 0.614,4.312 1.841,5.832c1.226,1.52 2.835,2.28 4.824,2.28c1.978,0 3.58,-0.76 4.807,-2.28c1.227,-1.52 1.84,-3.525 1.84,-6.015l0,-0.421c0,-1.514 -0.281,-2.899 -0.842,-4.157c-0.562,-1.257 -1.349,-2.231 -2.362,-2.92c-1.013,-0.69 -2.173,-1.035 -3.479,-1.035c-1.953,0 -3.546,0.766 -4.779,2.298c-1.233,1.532 -1.85,3.537 -1.85,6.015l0,0.403Z" style="fill:#de4573;fill-rule:nonzero;"/><path d="M537.118,263.217l0.073,3.222c0.733,-1.196 1.648,-2.093 2.747,-2.691c1.099,-0.598 2.319,-0.897 3.662,-0.897c3.125,0 5.109,1.281 5.951,3.845c0.708,-1.233 1.654,-2.182 2.838,-2.848c1.184,-0.665 2.49,-0.997 3.919,-0.997c4.248,0 6.414,2.319 6.5,6.958l0,13.22l-2.197,0l0,-13.056c-0.013,-1.77 -0.394,-3.082 -1.145,-3.936c-0.751,-0.855 -1.974,-1.282 -3.671,-1.282c-1.575,0.024 -2.905,0.534 -3.992,1.529c-1.086,0.995 -1.691,2.206 -1.813,3.634l0,13.111l-2.197,0l0,-13.22c-0.012,-1.697 -0.412,-2.964 -1.199,-3.8c-0.788,-0.836 -1.999,-1.254 -3.635,-1.254c-1.379,0 -2.563,0.394 -3.552,1.181c-0.989,0.787 -1.721,1.956 -2.197,3.506l0,13.587l-2.198,0l0,-19.812l2.106,0Z" style="fill:#de4573;fill-rule:nonzero;"/><path d="M568.982,285.318l-1.996,0l11.133,-28.949l1.978,0l-11.115,28.949Z" style="fill:#de4573;fill-rule:nonzero;"/><path d="M588.523,258.145l0,5.072l4.102,0l0,1.794l-4.102,0l0,13.202c0,1.099 0.198,1.917 0.595,2.454c0.397,0.537 1.059,0.805 1.987,0.805c0.366,0 0.958,-0.061 1.776,-0.183l0.092,1.795c-0.574,0.207 -1.355,0.311 -2.344,0.311c-1.502,0 -2.594,-0.436 -3.278,-1.309c-0.683,-0.873 -1.025,-2.158 -1.025,-3.855l0,-13.22l-3.644,0l0,-1.794l3.644,0l0,-5.072l2.197,0Z" style="fill:#de4573;fill-rule:nonzero;"/><path d="M610.609,283.029c-0.219,-0.623 -0.36,-1.544 -0.421,-2.765c-0.769,1.001 -1.749,1.773 -2.939,2.316c-1.19,0.543 -2.45,0.815 -3.781,0.815c-1.904,0 -3.445,-0.531 -4.623,-1.593c-1.178,-1.062 -1.767,-2.405 -1.767,-4.028c0,-1.929 0.802,-3.455 2.408,-4.578c1.605,-1.123 3.842,-1.685 6.71,-1.685l3.974,0l0,-2.252c0,-1.416 -0.437,-2.53 -1.309,-3.341c-0.873,-0.812 -2.146,-1.218 -3.818,-1.218c-1.526,0 -2.789,0.391 -3.79,1.172c-1.001,0.781 -1.502,1.721 -1.502,2.82l-2.197,-0.019c0,-1.574 0.732,-2.939 2.197,-4.092c1.465,-1.154 3.266,-1.73 5.402,-1.73c2.209,0 3.952,0.552 5.227,1.657c1.276,1.104 1.932,2.646 1.969,4.623l0,9.375c0,1.917 0.201,3.351 0.604,4.303l0,0.22l-2.344,0Zm-6.884,-1.575c1.464,0 2.774,-0.354 3.927,-1.062c1.154,-0.708 1.993,-1.654 2.518,-2.838l0,-4.358l-3.919,0c-2.185,0.024 -3.894,0.424 -5.127,1.199c-1.232,0.775 -1.849,1.841 -1.849,3.196c0,1.11 0.412,2.032 1.236,2.764c0.824,0.733 1.895,1.099 3.214,1.099Z" style="fill:#de4573;fill-rule:nonzero;"/><path d="M630.993,277.993c0,-1.086 -0.437,-1.959 -1.31,-2.618c-0.872,-0.659 -2.188,-1.175 -3.946,-1.547c-1.757,-0.373 -3.121,-0.8 -4.092,-1.282c-0.97,-0.482 -1.691,-1.071 -2.161,-1.767c-0.47,-0.696 -0.705,-1.538 -0.705,-2.527c0,-1.562 0.654,-2.853 1.96,-3.873c1.306,-1.019 2.978,-1.528 5.017,-1.528c2.209,0 3.982,0.546 5.319,1.638c1.337,1.093 2.005,2.518 2.005,4.276l-2.197,0c0,-1.16 -0.485,-2.124 -1.456,-2.893c-0.97,-0.769 -2.194,-1.154 -3.671,-1.154c-1.441,0 -2.597,0.321 -3.47,0.962c-0.873,0.64 -1.309,1.474 -1.309,2.499c0,0.989 0.363,1.755 1.089,2.298c0.727,0.543 2.051,1.041 3.974,1.492c1.922,0.452 3.363,0.934 4.321,1.447c0.958,0.512 1.669,1.129 2.133,1.849c0.464,0.72 0.696,1.593 0.696,2.619c0,1.672 -0.675,3.009 -2.023,4.01c-1.349,1 -3.11,1.501 -5.283,1.501c-2.307,0 -4.178,-0.558 -5.612,-1.675c-1.435,-1.117 -2.152,-2.53 -2.152,-4.239l2.198,0c0.085,1.281 0.625,2.279 1.62,2.993c0.995,0.715 2.31,1.072 3.946,1.072c1.526,0 2.759,-0.336 3.699,-1.007c0.94,-0.672 1.41,-1.52 1.41,-2.546Z" style="fill:#de4573;fill-rule:nonzero;"/><path d="M642.459,258.145l0,5.072l4.101,0l0,1.794l-4.101,0l0,13.202c0,1.099 0.198,1.917 0.595,2.454c0.396,0.537 1.059,0.805 1.986,0.805c0.367,0 0.959,-0.061 1.777,-0.183l0.091,1.795c-0.574,0.207 -1.355,0.311 -2.344,0.311c-1.501,0 -2.594,-0.436 -3.277,-1.309c-0.684,-0.873 -1.026,-2.158 -1.026,-3.855l0,-13.22l-3.643,0l0,-1.794l3.643,0l0,-5.072l2.198,0Z" style="fill:#de4573;fill-rule:nonzero;"/><path d="M658.319,279.879l5.786,-16.662l2.362,0l-8.459,23.181l-0.439,1.025c-1.087,2.405 -2.765,3.607 -5.036,3.607c-0.525,0 -1.086,-0.085 -1.684,-0.256l-0.019,-1.813l1.135,0.11c1.075,0 1.944,-0.265 2.61,-0.796c0.665,-0.531 1.23,-1.444 1.693,-2.738l0.971,-2.673l-7.471,-19.647l2.399,0l6.152,16.662Z" style="fill:#de4573;fill-rule:nonzero;"/><path d="M674.198,258.145l0,5.072l4.102,0l0,1.794l-4.102,0l0,13.202c0,1.099 0.199,1.917 0.595,2.454c0.397,0.537 1.059,0.805 1.987,0.805c0.366,0 0.958,-0.061 1.776,-0.183l0.092,1.795c-0.574,0.207 -1.355,0.311 -2.344,0.311c-1.502,0 -2.594,-0.436 -3.278,-1.309c-0.683,-0.873 -1.025,-2.158 -1.025,-3.855l0,-13.22l-3.644,0l0,-1.794l3.644,0l0,-5.072l2.197,0Z" style="fill:#de4573;fill-rule:nonzero;"/><path d="M696.284,283.029c-0.219,-0.623 -0.36,-1.544 -0.421,-2.765c-0.769,1.001 -1.748,1.773 -2.939,2.316c-1.19,0.543 -2.45,0.815 -3.781,0.815c-1.904,0 -3.445,-0.531 -4.623,-1.593c-1.178,-1.062 -1.767,-2.405 -1.767,-4.028c0,-1.929 0.802,-3.455 2.408,-4.578c1.605,-1.123 3.842,-1.685 6.711,-1.685l3.973,0l0,-2.252c0,-1.416 -0.437,-2.53 -1.309,-3.341c-0.873,-0.812 -2.146,-1.218 -3.818,-1.218c-1.526,0 -2.789,0.391 -3.79,1.172c-1.001,0.781 -1.502,1.721 -1.502,2.82l-2.197,-0.019c0,-1.574 0.732,-2.939 2.197,-4.092c1.465,-1.154 3.266,-1.73 5.402,-1.73c2.209,0 3.952,0.552 5.227,1.657c1.276,1.104 1.932,2.646 1.969,4.623l0,9.375c0,1.917 0.201,3.351 0.604,4.303l0,0.22l-2.344,0Zm-6.884,-1.575c1.464,0 2.774,-0.354 3.927,-1.062c1.154,-0.708 1.993,-1.654 2.518,-2.838l0,-4.358l-3.919,0c-2.185,0.024 -3.894,0.424 -5.127,1.199c-1.232,0.775 -1.849,1.841 -1.849,3.196c0,1.11 0.412,2.032 1.236,2.764c0.824,0.733 1.895,1.099 3.214,1.099Z" style="fill:#de4573;fill-rule:nonzero;"/><path d="M716.668,277.993c0,-1.086 -0.437,-1.959 -1.31,-2.618c-0.872,-0.659 -2.188,-1.175 -3.945,-1.547c-1.758,-0.373 -3.122,-0.8 -4.093,-1.282c-0.97,-0.482 -1.691,-1.071 -2.161,-1.767c-0.47,-0.696 -0.704,-1.538 -0.704,-2.527c0,-1.562 0.653,-2.853 1.959,-3.873c1.306,-1.019 2.978,-1.528 5.017,-1.528c2.209,0 3.982,0.546 5.319,1.638c1.337,1.093 2.005,2.518 2.005,4.276l-2.197,0c0,-1.16 -0.485,-2.124 -1.456,-2.893c-0.97,-0.769 -2.194,-1.154 -3.671,-1.154c-1.441,0 -2.597,0.321 -3.47,0.962c-0.873,0.64 -1.309,1.474 -1.309,2.499c0,0.989 0.363,1.755 1.089,2.298c0.727,0.543 2.051,1.041 3.974,1.492c1.922,0.452 3.363,0.934 4.321,1.447c0.958,0.512 1.669,1.129 2.133,1.849c0.464,0.72 0.696,1.593 0.696,2.619c0,1.672 -0.675,3.009 -2.023,4.01c-1.349,1 -3.11,1.501 -5.283,1.501c-2.307,0 -4.178,-0.558 -5.612,-1.675c-1.435,-1.117 -2.152,-2.53 -2.152,-4.239l2.198,0c0.085,1.281 0.625,2.279 1.62,2.993c0.995,0.715 2.31,1.072 3.946,1.072c1.526,0 2.759,-0.336 3.699,-1.007c0.94,-0.672 1.41,-1.52 1.41,-2.546Z" style="fill:#de4573;fill-rule:nonzero;"/><path d="M728.134,258.145l0,5.072l4.101,0l0,1.794l-4.101,0l0,13.202c0,1.099 0.198,1.917 0.595,2.454c0.397,0.537 1.059,0.805 1.986,0.805c0.367,0 0.959,-0.061 1.777,-0.183l0.091,1.795c-0.574,0.207 -1.355,0.311 -2.344,0.311c-1.501,0 -2.594,-0.436 -3.277,-1.309c-0.684,-0.873 -1.026,-2.158 -1.026,-3.855l0,-13.22l-3.643,0l0,-1.794l3.643,0l0,-5.072l2.198,0Z" style="fill:#de4573;fill-rule:nonzero;"/><path d="M745.386,283.395c-1.685,0 -3.207,-0.415 -4.569,-1.245c-1.361,-0.83 -2.42,-1.987 -3.176,-3.47c-0.757,-1.483 -1.136,-3.146 -1.136,-4.99l0,-0.787c0,-1.904 0.37,-3.619 1.108,-5.145c0.739,-1.526 1.767,-2.725 3.085,-3.598c1.319,-0.873 2.747,-1.309 4.285,-1.309c2.405,0 4.312,0.82 5.722,2.462c1.41,1.642 2.115,3.885 2.115,6.729l0,1.227l-14.136,0l0,0.421c0,2.246 0.644,4.117 1.932,5.613c1.288,1.495 2.908,2.243 4.861,2.243c1.172,0 2.207,-0.214 3.104,-0.641c0.897,-0.428 1.712,-1.111 2.445,-2.051l1.373,1.044c-1.611,2.331 -3.949,3.497 -7.013,3.497Zm-0.403,-18.677c-1.648,0 -3.036,0.604 -4.166,1.813c-1.129,1.208 -1.815,2.832 -2.06,4.871l11.884,0l0,-0.238c-0.061,-1.905 -0.604,-3.455 -1.63,-4.651c-1.025,-1.197 -2.368,-1.795 -4.028,-1.795Z" style="fill:#de4573;fill-rule:nonzero;"/><path d="M757.822,281.71c0,-0.427 0.138,-0.79 0.412,-1.089c0.275,-0.299 0.657,-0.449 1.145,-0.449c0.488,0 0.873,0.15 1.153,0.449c0.281,0.299 0.422,0.662 0.422,1.089c0,0.428 -0.141,0.779 -0.422,1.053c-0.28,0.275 -0.665,0.412 -1.153,0.412c-0.488,0 -0.87,-0.137 -1.145,-0.412c-0.274,-0.274 -0.412,-0.625 -0.412,-1.053Z" style="fill:#de4573;fill-rule:nonzero;"/><path d="M777.07,265.084c-0.463,-0.085 -0.958,-0.128 -1.483,-0.128c-1.367,0 -2.523,0.382 -3.47,1.145c-0.946,0.763 -1.62,1.87 -2.023,3.323l0,13.605l-2.179,0l0,-19.812l2.143,0l0.036,3.149c1.16,-2.344 3.021,-3.515 5.585,-3.515c0.61,0 1.092,0.079 1.446,0.238l-0.055,1.995Z" style="fill:#de4573;fill-rule:nonzero;"/><path d="M779.894,272.83c0,-1.905 0.369,-3.62 1.108,-5.145c0.738,-1.526 1.782,-2.713 3.131,-3.562c1.349,-0.848 2.878,-1.272 4.587,-1.272c2.636,0 4.773,0.924 6.408,2.774c1.636,1.849 2.454,4.3 2.454,7.351l0,0.458c0,1.917 -0.369,3.641 -1.108,5.173c-0.738,1.532 -1.779,2.713 -3.122,3.543c-1.343,0.83 -2.875,1.245 -4.596,1.245c-2.624,0 -4.757,-0.925 -6.399,-2.774c-1.642,-1.849 -2.463,-4.3 -2.463,-7.352l0,-0.439Zm2.197,0.604c0,2.368 0.614,4.312 1.84,5.832c1.227,1.52 2.836,2.28 4.825,2.28c1.978,0 3.58,-0.76 4.807,-2.28c1.227,-1.52 1.84,-3.525 1.84,-6.015l0,-0.421c0,-1.514 -0.281,-2.899 -0.842,-4.157c-0.562,-1.257 -1.349,-2.231 -2.362,-2.92c-1.014,-0.69 -2.173,-1.035 -3.479,-1.035c-1.953,0 -3.546,0.766 -4.779,2.298c-1.233,1.532 -1.85,3.537 -1.85,6.015l0,0.403Z" style="fill:#de4573;fill-rule:nonzero;"/><path d="M36.962,256.519l0,5.331l4.109,0l0,2.909l-4.109,0l0,13.652c0,0.881 0.183,1.542 0.549,1.983c0.366,0.441 0.99,0.661 1.872,0.661c0.434,0 1.03,-0.081 1.79,-0.244l0,3.052c-0.99,0.271 -1.953,0.407 -2.889,0.407c-1.682,0 -2.95,-0.509 -3.805,-1.526c-0.854,-1.017 -1.281,-2.462 -1.281,-4.333l0,-13.652l-4.008,0l0,-2.909l4.008,0l0,-5.331l3.764,0Z" style="fill:#33ccc2;fill-rule:nonzero;"/><path d="M59.056,283.863c-0.217,-0.434 -0.393,-1.207 -0.529,-2.319c-1.749,1.817 -3.838,2.726 -6.266,2.726c-2.17,0 -3.95,-0.614 -5.341,-1.841c-1.39,-1.228 -2.085,-2.784 -2.085,-4.67c0,-2.292 0.871,-4.072 2.614,-5.34c1.743,-1.268 4.195,-1.902 7.355,-1.902l3.662,0l0,-1.73c0,-1.315 -0.393,-2.363 -1.18,-3.143c-0.786,-0.78 -1.946,-1.17 -3.479,-1.17c-1.343,0 -2.468,0.339 -3.377,1.017c-0.909,0.679 -1.363,1.499 -1.363,2.462l-3.784,0c0,-1.098 0.39,-2.16 1.169,-3.184c0.78,-1.024 1.838,-1.834 3.174,-2.431c1.336,-0.597 2.805,-0.895 4.405,-0.895c2.536,0 4.523,0.634 5.961,1.902c1.438,1.268 2.184,3.014 2.238,5.239l0,10.132c0,2.021 0.258,3.628 0.773,4.821l0,0.326l-3.947,0Zm-6.246,-2.869c1.18,0 2.299,-0.305 3.357,-0.915c1.058,-0.611 1.825,-1.404 2.299,-2.381l0,-4.516l-2.95,0c-4.611,0 -6.917,1.349 -6.917,4.049c0,1.18 0.393,2.102 1.18,2.766c0.787,0.665 1.797,0.997 3.031,0.997Z" style="fill:#33ccc2;fill-rule:nonzero;"/><path d="M80.948,278.024c0,-1.017 -0.384,-1.807 -1.15,-2.37c-0.766,-0.563 -2.102,-1.048 -4.008,-1.455c-1.906,-0.407 -3.418,-0.895 -4.537,-1.465c-1.119,-0.569 -1.946,-1.248 -2.482,-2.034c-0.536,-0.787 -0.804,-1.723 -0.804,-2.808c0,-1.804 0.763,-3.33 2.289,-4.578c1.526,-1.247 3.476,-1.871 5.849,-1.871c2.496,0 4.52,0.644 6.073,1.933c1.553,1.288 2.33,2.936 2.33,4.943l-3.784,0c0,-1.03 -0.438,-1.919 -1.313,-2.665c-0.874,-0.746 -1.976,-1.119 -3.306,-1.119c-1.37,0 -2.441,0.299 -3.214,0.895c-0.773,0.597 -1.16,1.377 -1.16,2.34c0,0.909 0.36,1.594 1.078,2.055c0.719,0.461 2.018,0.902 3.897,1.322c1.878,0.421 3.401,0.923 4.567,1.506c1.166,0.583 2.031,1.285 2.594,2.106c0.563,0.82 0.844,1.82 0.844,3c0,1.967 -0.786,3.544 -2.36,4.731c-1.573,1.186 -3.614,1.78 -6.124,1.78c-1.763,0 -3.323,-0.312 -4.679,-0.936c-1.356,-0.624 -2.418,-1.495 -3.184,-2.614c-0.766,-1.119 -1.149,-2.33 -1.149,-3.632l3.763,0c0.068,1.261 0.573,2.262 1.516,3.001c0.943,0.739 2.187,1.109 3.733,1.109c1.425,0 2.567,-0.288 3.429,-0.865c0.861,-0.576 1.292,-1.346 1.292,-2.309Z" style="fill:#33ccc2;fill-rule:nonzero;"/><path d="M94.721,256.519l0,5.331l4.11,0l0,2.909l-4.11,0l0,13.652c0,0.881 0.183,1.542 0.549,1.983c0.367,0.441 0.991,0.661 1.872,0.661c0.434,0 1.031,-0.081 1.791,-0.244l0,3.052c-0.991,0.271 -1.954,0.407 -2.889,0.407c-1.682,0 -2.95,-0.509 -3.805,-1.526c-0.854,-1.017 -1.282,-2.462 -1.282,-4.333l0,-13.652l-4.008,0l0,-2.909l4.008,0l0,-5.331l3.764,0Z" style="fill:#33ccc2;fill-rule:nonzero;"/><path d="M110.427,278.349l5.127,-16.499l4.029,0l-8.85,25.411c-1.37,3.662 -3.547,5.493 -6.531,5.493l-0.712,-0.061l-1.404,-0.265l0,-3.051l1.017,0.081c1.275,0 2.269,-0.258 2.981,-0.773c0.712,-0.516 1.299,-1.458 1.76,-2.828l0.834,-2.238l-7.853,-21.769l4.109,0l5.493,16.499Z" style="fill:#33ccc2;fill-rule:nonzero;"/><path d="M128.046,256.519l0,5.331l4.11,0l0,2.909l-4.11,0l0,13.652c0,0.881 0.183,1.542 0.55,1.983c0.366,0.441 0.99,0.661 1.871,0.661c0.434,0 1.031,-0.081 1.791,-0.244l0,3.052c-0.99,0.271 -1.953,0.407 -2.889,0.407c-1.682,0 -2.95,-0.509 -3.805,-1.526c-0.854,-1.017 -1.282,-2.462 -1.282,-4.333l0,-13.652l-4.008,0l0,-2.909l4.008,0l0,-5.331l3.764,0Z" style="fill:#33ccc2;fill-rule:nonzero;"/><path d="M150.141,283.863c-0.217,-0.434 -0.393,-1.207 -0.529,-2.319c-1.75,1.817 -3.838,2.726 -6.266,2.726c-2.17,0 -3.951,-0.614 -5.341,-1.841c-1.39,-1.228 -2.085,-2.784 -2.085,-4.67c0,-2.292 0.871,-4.072 2.614,-5.34c1.743,-1.268 4.195,-1.902 7.355,-1.902l3.662,0l0,-1.73c0,-1.315 -0.393,-2.363 -1.18,-3.143c-0.787,-0.78 -1.946,-1.17 -3.479,-1.17c-1.343,0 -2.469,0.339 -3.377,1.017c-0.909,0.679 -1.363,1.499 -1.363,2.462l-3.785,0c0,-1.098 0.39,-2.16 1.17,-3.184c0.78,-1.024 1.838,-1.834 3.174,-2.431c1.336,-0.597 2.804,-0.895 4.405,-0.895c2.536,0 4.523,0.634 5.961,1.902c1.438,1.268 2.184,3.014 2.238,5.239l0,10.132c0,2.021 0.258,3.628 0.773,4.821l0,0.326l-3.947,0Zm-6.246,-2.869c1.18,0 2.299,-0.305 3.357,-0.915c1.058,-0.611 1.824,-1.404 2.299,-2.381l0,-4.516l-2.95,0c-4.612,0 -6.917,1.349 -6.917,4.049c0,1.18 0.393,2.102 1.18,2.766c0.786,0.665 1.797,0.997 3.031,0.997Z" style="fill:#33ccc2;fill-rule:nonzero;"/><path d="M172.032,278.024c0,-1.017 -0.383,-1.807 -1.149,-2.37c-0.767,-0.563 -2.103,-1.048 -4.008,-1.455c-1.906,-0.407 -3.418,-0.895 -4.537,-1.465c-1.119,-0.569 -1.946,-1.248 -2.482,-2.034c-0.536,-0.787 -0.804,-1.723 -0.804,-2.808c0,-1.804 0.763,-3.33 2.289,-4.578c1.526,-1.247 3.476,-1.871 5.849,-1.871c2.496,0 4.52,0.644 6.073,1.933c1.553,1.288 2.33,2.936 2.33,4.943l-3.784,0c0,-1.03 -0.438,-1.919 -1.313,-2.665c-0.875,-0.746 -1.977,-1.119 -3.306,-1.119c-1.37,0 -2.441,0.299 -3.214,0.895c-0.773,0.597 -1.16,1.377 -1.16,2.34c0,0.909 0.359,1.594 1.078,2.055c0.719,0.461 2.018,0.902 3.896,1.322c1.879,0.421 3.401,0.923 4.568,1.506c1.166,0.583 2.031,1.285 2.594,2.106c0.563,0.82 0.844,1.82 0.844,3c0,1.967 -0.787,3.544 -2.36,4.731c-1.573,1.186 -3.615,1.78 -6.124,1.78c-1.763,0 -3.323,-0.312 -4.679,-0.936c-1.356,-0.624 -2.418,-1.495 -3.184,-2.614c-0.766,-1.119 -1.15,-2.33 -1.15,-3.632l3.764,0c0.068,1.261 0.573,2.262 1.516,3.001c0.943,0.739 2.187,1.109 3.733,1.109c1.424,0 2.567,-0.288 3.428,-0.865c0.862,-0.576 1.292,-1.346 1.292,-2.309Z" style="fill:#33ccc2;fill-rule:nonzero;"/><path d="M185.806,256.519l0,5.331l4.11,0l0,2.909l-4.11,0l0,13.652c0,0.881 0.183,1.542 0.549,1.983c0.366,0.441 0.99,0.661 1.872,0.661c0.434,0 1.031,-0.081 1.79,-0.244l0,3.052c-0.99,0.271 -1.953,0.407 -2.889,0.407c-1.682,0 -2.95,-0.509 -3.804,-1.526c-0.855,-1.017 -1.282,-2.462 -1.282,-4.333l0,-13.652l-4.008,0l0,-2.909l4.008,0l0,-5.331l3.764,0Z" style="fill:#33ccc2;fill-rule:nonzero;"/><path d="M203.445,284.27c-2.984,0 -5.412,-0.98 -7.283,-2.94c-1.872,-1.96 -2.808,-4.581 -2.808,-7.863l0,-0.692c0,-2.184 0.417,-4.133 1.251,-5.849c0.834,-1.716 2.001,-3.059 3.499,-4.029c1.499,-0.969 3.123,-1.454 4.873,-1.454c2.862,0 5.086,0.942 6.673,2.828c1.587,1.885 2.381,4.584 2.381,8.097l0,1.567l-14.913,0c0.054,2.17 0.688,3.923 1.902,5.259c1.214,1.336 2.757,2.004 4.629,2.004c1.329,0 2.454,-0.271 3.377,-0.814c0.922,-0.543 1.729,-1.261 2.421,-2.157l2.299,1.791c-1.845,2.835 -4.612,4.252 -8.301,4.252Zm-0.468,-19.735c-1.519,0 -2.794,0.553 -3.825,1.658c-1.031,1.106 -1.668,2.655 -1.912,4.649l11.027,0l0,-0.285c-0.109,-1.912 -0.624,-3.394 -1.546,-4.445c-0.923,-1.051 -2.171,-1.577 -3.744,-1.577Z" style="fill:#33ccc2;fill-rule:nonzero;"/><path d="M216.466,281.89c0,-0.652 0.193,-1.194 0.58,-1.628c0.386,-0.434 0.966,-0.651 1.739,-0.651c0.773,0 1.36,0.217 1.76,0.651c0.4,0.434 0.6,0.976 0.6,1.628c0,0.623 -0.2,1.146 -0.6,1.566c-0.4,0.421 -0.987,0.631 -1.76,0.631c-0.773,0 -1.353,-0.21 -1.739,-0.631c-0.387,-0.42 -0.58,-0.943 -0.58,-1.566Z" style="fill:#33ccc2;fill-rule:nonzero;"/><path d="M237.991,265.227c-0.57,-0.095 -1.187,-0.142 -1.851,-0.142c-2.469,0 -4.144,1.051 -5.026,3.153l0,15.625l-3.763,0l0,-22.013l3.662,0l0.061,2.543c1.234,-1.967 2.984,-2.95 5.249,-2.95c0.732,0 1.288,0.095 1.668,0.285l0,3.499Z" style="fill:#33ccc2;fill-rule:nonzero;"/><path d="M240.046,272.653c0,-2.157 0.424,-4.096 1.271,-5.819c0.848,-1.722 2.028,-3.052 3.54,-3.987c1.513,-0.936 3.239,-1.404 5.178,-1.404c2.998,0 5.422,1.037 7.274,3.113c1.851,2.075 2.777,4.835 2.777,8.28l0,0.264c0,2.143 -0.411,4.066 -1.231,5.768c-0.821,1.702 -1.994,3.028 -3.52,3.978c-1.526,0.949 -3.279,1.424 -5.259,1.424c-2.984,0 -5.402,-1.038 -7.253,-3.113c-1.851,-2.075 -2.777,-4.822 -2.777,-8.24l0,-0.264Zm3.784,0.447c0,2.442 0.566,4.402 1.699,5.88c1.132,1.479 2.648,2.218 4.547,2.218c1.912,0 3.431,-0.75 4.557,-2.248c1.126,-1.499 1.689,-3.598 1.689,-6.297c0,-2.414 -0.573,-4.371 -1.719,-5.87c-1.146,-1.498 -2.669,-2.248 -4.568,-2.248c-1.858,0 -3.357,0.739 -4.496,2.218c-1.139,1.478 -1.709,3.594 -1.709,6.347Z" style="fill:#33ccc2;fill-rule:nonzero;"/></g><g><g><path d="M238.946,121.854c-0.259,-0.916 -0.762,-1.538 -1.508,-1.865c-0.747,-0.327 -1.558,-0.507 -2.434,-0.539c-0.876,-0.033 -1.736,0.016 -2.579,0.147c-0.844,0.131 -1.493,0.196 -1.947,0.196c-1.103,-0.065 -3.017,-0.196 -5.743,-0.393c-2.725,-0.196 -5.662,-0.408 -8.809,-0.637c-3.147,-0.229 -6.083,-0.458 -8.809,-0.687c-2.725,-0.229 -4.639,-0.376 -5.742,-0.442c0,-0.131 -0.033,-0.458 -0.098,-0.981c-0.065,-0.523 -0.097,-0.883 -0.097,-1.079c0,-0.916 0.081,-1.734 0.243,-2.454c0.162,-0.719 0.795,-1.275 1.898,-1.668c6.1,0.131 12.119,0.098 18.056,-0.098c5.938,-0.196 11.875,-0.474 17.813,-0.834c5.937,-0.36 11.875,-0.703 17.812,-1.03c5.938,-0.327 11.924,-0.491 17.959,-0.491c0,2.486 -0.584,4.301 -1.752,5.446c-1.168,1.145 -2.612,1.914 -4.332,2.306c-1.719,0.393 -3.618,0.556 -5.694,0.491c-2.077,-0.066 -4.072,-0.033 -5.986,0.098c-1.915,0.131 -3.602,0.507 -5.062,1.128c-1.46,0.622 -2.417,1.75 -2.871,3.386c-0.065,0.392 -0.13,1.144 -0.195,2.257c-0.065,1.112 -0.113,2.289 -0.146,3.532c-0.032,1.243 -0.065,2.404 -0.097,3.484c-0.033,1.079 -0.049,1.848 -0.049,2.306c0,3.728 0.471,7.408 1.412,11.039c0.94,3.631 1.979,7.229 3.114,10.794c1.136,3.565 2.174,7.13 3.115,10.696c0.941,3.565 1.411,7.179 1.411,10.843c0,2.747 -1.557,4.121 -4.672,4.121c-1.882,0 -3.552,-1.308 -5.012,-3.925c-1.461,-2.617 -2.726,-5.953 -3.797,-10.009c-1.07,-4.056 -1.946,-8.472 -2.628,-13.247c-0.681,-4.776 -1.233,-9.355 -1.654,-13.738c-0.422,-4.383 -0.714,-8.243 -0.876,-11.579c-0.163,-3.336 -0.244,-5.528 -0.244,-6.574Z" style="fill:#33ccc2;fill-rule:nonzero;stroke:#33ccc2;stroke-width:4.17px;"/><path d="M315.266,168.071c-2.466,1.701 -4.591,3.222 -6.376,4.563c-1.784,1.341 -3.52,2.47 -5.207,3.386c-1.687,0.915 -3.488,1.602 -5.402,2.06c-1.914,0.458 -4.267,0.687 -7.057,0.687c-6.035,0 -10.512,-1.619 -13.432,-4.857c-2.921,-3.238 -4.381,-8.063 -4.381,-14.474c0,-2.486 0.325,-5.07 0.974,-7.752c0.649,-2.682 1.606,-5.348 2.871,-7.997c1.266,-2.65 2.774,-5.168 4.526,-7.556c1.752,-2.388 3.732,-4.497 5.938,-6.329c2.206,-1.832 4.558,-3.287 7.057,-4.367c2.498,-1.079 5.142,-1.619 7.933,-1.619c4.672,0.458 8.338,1.619 10.999,3.484c2.66,1.864 4.672,4.252 6.034,7.163c1.363,2.911 2.304,6.149 2.823,9.714c0.519,3.566 0.925,7.246 1.217,11.04c0.292,3.794 0.665,7.588 1.119,11.382c0.454,3.795 1.395,7.295 2.823,10.5c-0.844,2.159 -1.639,3.68 -2.385,4.563c-0.746,0.883 -1.573,1.03 -2.482,0.441c-0.908,-0.588 -1.963,-2.027 -3.163,-4.317c-1.201,-2.29 -2.677,-5.528 -4.429,-9.715Zm-33.581,-8.439c0,3.729 0.698,6.46 2.093,8.194c1.395,1.734 3.877,2.6 7.446,2.6c2.66,0 5.207,-0.474 7.641,-1.422c2.433,-0.949 4.558,-2.257 6.375,-3.926c1.817,-1.668 3.277,-3.679 4.38,-6.034c1.104,-2.355 1.655,-4.972 1.655,-7.85c0,-1.178 0.033,-2.83 0.098,-4.956c0.064,-2.126 -0.065,-4.236 -0.39,-6.329c-0.324,-2.093 -0.941,-3.909 -1.849,-5.446c-0.909,-1.537 -2.271,-2.306 -4.088,-2.306c-3.375,0 -6.489,0.867 -9.345,2.6c-2.855,1.734 -5.321,3.942 -7.397,6.624c-2.077,2.682 -3.699,5.642 -4.867,8.88c-1.168,3.239 -1.752,6.362 -1.752,9.371Z" style="fill:#33ccc2;fill-rule:nonzero;stroke:#33ccc2;stroke-width:4.17px;"/><path d="M354.546,176.314c1.038,-0.72 2.287,-1.652 3.747,-2.797c1.46,-1.144 2.936,-2.371 4.429,-3.679c1.492,-1.309 2.888,-2.682 4.185,-4.122c1.298,-1.439 2.32,-2.829 3.066,-4.17c0.747,-1.341 1.12,-2.6 1.12,-3.778c0,-1.177 -0.584,-2.159 -1.752,-2.944c-2.077,0 -4.348,0.082 -6.814,0.246c-2.466,0.163 -4.931,0.229 -7.397,0.196c-2.466,-0.033 -4.851,-0.246 -7.155,-0.638c-2.303,-0.393 -4.363,-1.112 -6.18,-2.159c-1.817,-1.046 -3.261,-2.535 -4.332,-4.465c-1.071,-1.929 -1.606,-4.399 -1.606,-7.408c0,-3.533 0.665,-6.722 1.996,-9.568c1.33,-2.845 3.098,-5.364 5.304,-7.555c2.207,-2.192 4.689,-4.122 7.447,-5.79c2.757,-1.668 5.531,-3.091 8.322,-4.268c1.687,0.458 3.244,1.275 4.672,2.453c1.428,1.177 2.66,2.486 3.699,3.925c-0.455,1.439 -1.347,2.551 -2.677,3.336c-1.33,0.785 -2.855,1.472 -4.575,2.061c-1.719,0.589 -3.52,1.21 -5.402,1.864c-1.882,0.655 -3.585,1.521 -5.11,2.601c-1.525,1.079 -2.807,2.486 -3.845,4.219c-1.038,1.734 -1.557,4.007 -1.557,6.82c0,2.093 0.519,3.631 1.557,4.612c1.038,0.981 2.401,1.652 4.088,2.012c1.687,0.359 3.602,0.49 5.743,0.392c2.141,-0.098 4.331,-0.245 6.57,-0.442c2.239,-0.196 4.429,-0.31 6.57,-0.343c2.142,-0.033 4.056,0.229 5.743,0.785c1.687,0.556 3.034,1.456 4.04,2.699c1.005,1.242 1.508,3.074 1.508,5.495c0,1.046 -0.34,2.387 -1.022,4.023c-0.681,1.635 -1.589,3.385 -2.725,5.25c-1.136,1.864 -2.466,3.712 -3.991,5.544c-1.525,1.831 -3.115,3.483 -4.769,4.955c-1.655,1.472 -3.31,2.682 -4.964,3.631c-1.655,0.948 -3.196,1.423 -4.624,1.423c-1.363,0 -2.255,-0.491 -2.677,-1.472c-0.421,-0.981 -0.632,-1.963 -0.632,-2.944Z" style="fill:#33ccc2;fill-rule:nonzero;stroke:#33ccc2;stroke-width:4.17px;"/><path d="M379.702,131.274c0,-0.196 0.033,-0.36 0.098,-0.491c0,-0.131 0.032,-0.294 0.097,-0.49c0.26,-0.328 0.649,-0.753 1.168,-1.276c0.519,-0.523 0.844,-0.785 0.973,-0.785l19.565,0c0,-0.72 -0.097,-1.865 -0.292,-3.435c-0.195,-1.57 -0.373,-3.303 -0.535,-5.2c-0.163,-1.897 -0.211,-3.876 -0.146,-5.937c0.065,-2.061 0.34,-3.925 0.827,-5.593c0.487,-1.668 1.265,-3.042 2.336,-4.121c1.071,-1.08 2.58,-1.62 4.526,-1.62c0,6.608 0.454,11.906 1.363,15.897c0.908,3.99 2.125,7.065 3.65,9.224c1.525,2.159 3.261,3.565 5.208,4.219c1.946,0.654 3.942,0.933 5.986,0.834c2.044,-0.098 4.039,-0.408 5.986,-0.932c1.947,-0.523 3.682,-0.883 5.207,-1.079c1.525,-0.196 2.742,-0.049 3.65,0.441c0.909,0.491 1.363,1.652 1.363,3.484c0,1.374 -0.308,2.355 -0.925,2.944c-0.616,0.588 -1.8,1.046 -3.552,1.373c-0.519,0.066 -1.379,0.18 -2.58,0.344c-1.2,0.163 -2.547,0.311 -4.039,0.441c-1.493,0.131 -3.082,0.278 -4.77,0.442c-1.687,0.164 -3.277,0.311 -4.769,0.442c-1.493,0.13 -2.855,0.212 -4.088,0.245c-1.233,0.033 -2.142,0.049 -2.726,0.049c0,0.327 -0.032,0.883 -0.097,1.668c-0.065,0.785 -0.097,1.308 -0.097,1.57c0,2.879 0.454,5.675 1.362,8.39c0.909,2.715 1.898,5.413 2.969,8.095c1.071,2.683 2.06,5.365 2.969,8.047c0.908,2.682 1.363,5.462 1.363,8.341c0,0.523 -0.049,1.063 -0.146,1.619c-0.098,0.556 -0.292,1.046 -0.584,1.472c-0.292,0.425 -0.714,0.752 -1.266,0.981c-0.551,0.229 -1.314,0.18 -2.287,-0.147c-2.466,-0.654 -4.299,-2.061 -5.5,-4.22c-1.2,-2.159 -2.092,-4.726 -2.676,-7.703c-0.584,-2.976 -0.974,-6.133 -1.168,-9.469c-0.195,-3.336 -0.503,-6.46 -0.925,-9.371c-0.422,-2.911 -1.087,-5.397 -1.996,-7.458c-0.908,-2.06 -2.368,-3.32 -4.38,-3.778l-18.786,-4.317c-0.259,0 -0.648,-0.278 -1.168,-0.834c-0.519,-0.556 -0.843,-0.965 -0.973,-1.227c-0.065,-0.131 -0.097,-0.294 -0.097,-0.49c-0.065,-0.131 -0.098,-0.328 -0.098,-0.589Z" style="fill:#33ccc2;fill-rule:nonzero;stroke:#33ccc2;stroke-width:4.17px;"/><path d="M449.776,129.998c0,-0.589 0.016,-1.194 0.049,-1.815c0.032,-0.622 0.162,-1.21 0.389,-1.766c0.227,-0.557 0.552,-0.982 0.974,-1.276c0.421,-0.294 1.054,-0.442 1.898,-0.442l0.584,0c0.194,0.066 0.357,0.098 0.486,0.098c1.233,1.701 2.304,3.876 3.212,6.526c0.909,2.649 1.785,5.462 2.628,8.439c0.844,2.976 1.753,5.986 2.726,9.027c0.973,3.042 2.239,5.774 3.796,8.194c1.557,2.42 3.472,4.35 5.743,5.79c2.271,1.439 5.094,2.06 8.468,1.864c1.493,0 2.466,-0.818 2.92,-2.453c0.454,-1.636 0.698,-3.729 0.73,-6.28c0.033,-2.552 -0.032,-5.365 -0.194,-8.439c-0.163,-3.075 -0.163,-6.002 0,-8.783c0.162,-2.78 0.648,-5.217 1.46,-7.31c0.811,-2.093 2.222,-3.5 4.234,-4.22c0.843,1.701 1.541,4.367 2.092,7.998c0.552,3.631 0.958,7.817 1.217,12.56c0.26,4.743 0.389,9.878 0.389,15.406c0,5.528 -0.129,11.023 -0.389,16.485c-0.259,5.463 -0.649,10.712 -1.168,15.75c-0.519,5.037 -1.103,9.452 -1.752,13.247c-0.649,3.794 -1.411,6.787 -2.287,8.978c-0.876,2.192 -1.801,3.124 -2.774,2.797c-1.363,-1.308 -2.418,-3.009 -3.164,-5.103c-0.746,-2.093 -1.265,-4.415 -1.557,-6.967c-0.292,-2.551 -0.406,-5.249 -0.341,-8.095c0.065,-2.846 0.179,-5.708 0.341,-8.586c0.162,-2.879 0.357,-5.692 0.584,-8.439c0.227,-2.748 0.34,-5.266 0.34,-7.556c-2.336,0.196 -4.72,-0.163 -7.154,-1.079c-2.433,-0.916 -4.818,-2.339 -7.154,-4.269c-2.336,-1.93 -4.559,-4.268 -6.667,-7.016c-2.109,-2.747 -3.959,-5.855 -5.549,-9.322c-1.589,-3.467 -2.839,-7.212 -3.747,-11.235c-0.909,-4.024 -1.363,-8.259 -1.363,-12.708Z" style="fill:#33ccc2;fill-rule:nonzero;stroke:#33ccc2;stroke-width:4.17px;"/><path d="M537.184,121.854c-0.26,-0.916 -0.762,-1.538 -1.509,-1.865c-0.746,-0.327 -1.557,-0.507 -2.433,-0.539c-0.876,-0.033 -1.736,0.016 -2.58,0.147c-0.843,0.131 -1.492,0.196 -1.946,0.196c-1.103,-0.065 -3.018,-0.196 -5.743,-0.393c-2.725,-0.196 -5.662,-0.408 -8.809,-0.637c-3.147,-0.229 -6.083,-0.458 -8.809,-0.687c-2.725,-0.229 -4.64,-0.376 -5.743,-0.442c0,-0.131 -0.032,-0.458 -0.097,-0.981c-0.065,-0.523 -0.097,-0.883 -0.097,-1.079c0,-0.916 0.081,-1.734 0.243,-2.454c0.162,-0.719 0.795,-1.275 1.898,-1.668c6.1,0.131 12.118,0.098 18.056,-0.098c5.937,-0.196 11.875,-0.474 17.812,-0.834c5.938,-0.36 11.875,-0.703 17.813,-1.03c5.937,-0.327 11.924,-0.491 17.958,-0.491c0,2.486 -0.584,4.301 -1.752,5.446c-1.168,1.145 -2.612,1.914 -4.331,2.306c-1.72,0.393 -3.618,0.556 -5.694,0.491c-2.077,-0.066 -4.072,-0.033 -5.986,0.098c-1.915,0.131 -3.602,0.507 -5.062,1.128c-1.46,0.622 -2.417,1.75 -2.871,3.386c-0.065,0.392 -0.13,1.144 -0.195,2.257c-0.065,1.112 -0.114,2.289 -0.146,3.532c-0.032,1.243 -0.065,2.404 -0.097,3.484c-0.033,1.079 -0.049,1.848 -0.049,2.306c0,3.728 0.47,7.408 1.411,11.039c0.941,3.631 1.979,7.229 3.115,10.794c1.136,3.565 2.174,7.13 3.115,10.696c0.941,3.565 1.411,7.179 1.411,10.843c0,2.747 -1.557,4.121 -4.672,4.121c-1.882,0 -3.553,-1.308 -5.013,-3.925c-1.46,-2.617 -2.725,-5.953 -3.796,-10.009c-1.071,-4.056 -1.947,-8.472 -2.628,-13.247c-0.681,-4.776 -1.233,-9.355 -1.655,-13.738c-0.421,-4.383 -0.713,-8.243 -0.876,-11.579c-0.162,-3.336 -0.243,-5.528 -0.243,-6.574Z" style="fill:#33ccc2;fill-rule:nonzero;stroke:#33ccc2;stroke-width:4.17px;"/><path d="M613.504,168.071c-2.466,1.701 -4.591,3.222 -6.376,4.563c-1.784,1.341 -3.52,2.47 -5.207,3.386c-1.687,0.915 -3.488,1.602 -5.402,2.06c-1.915,0.458 -4.267,0.687 -7.057,0.687c-6.035,0 -10.513,-1.619 -13.433,-4.857c-2.92,-3.238 -4.38,-8.063 -4.38,-14.474c0,-2.486 0.325,-5.07 0.974,-7.752c0.648,-2.682 1.606,-5.348 2.871,-7.997c1.265,-2.65 2.774,-5.168 4.526,-7.556c1.752,-2.388 3.731,-4.497 5.938,-6.329c2.206,-1.832 4.558,-3.287 7.056,-4.367c2.499,-1.079 5.143,-1.619 7.933,-1.619c4.672,0.458 8.339,1.619 10.999,3.484c2.661,1.864 4.672,4.252 6.035,7.163c1.363,2.911 2.304,6.149 2.823,9.714c0.519,3.566 0.925,7.246 1.217,11.04c0.292,3.794 0.665,7.588 1.119,11.382c0.454,3.795 1.395,7.295 2.823,10.5c-0.844,2.159 -1.639,3.68 -2.385,4.563c-0.746,0.883 -1.574,1.03 -2.482,0.441c-0.909,-0.588 -1.963,-2.027 -3.164,-4.317c-1.2,-2.29 -2.676,-5.528 -4.428,-9.715Zm-33.581,-8.439c0,3.729 0.697,6.46 2.092,8.194c1.396,1.734 3.878,2.6 7.447,2.6c2.66,0 5.207,-0.474 7.641,-1.422c2.433,-0.949 4.558,-2.257 6.375,-3.926c1.817,-1.668 3.277,-3.679 4.38,-6.034c1.103,-2.355 1.655,-4.972 1.655,-7.85c0,-1.178 0.032,-2.83 0.097,-4.956c0.065,-2.126 -0.065,-4.236 -0.389,-6.329c-0.325,-2.093 -0.941,-3.909 -1.849,-5.446c-0.909,-1.537 -2.272,-2.306 -4.089,-2.306c-3.374,0 -6.489,0.867 -9.344,2.6c-2.855,1.734 -5.321,3.942 -7.397,6.624c-2.077,2.682 -3.699,5.642 -4.867,8.88c-1.168,3.239 -1.752,6.362 -1.752,9.371Z" style="fill:#33ccc2;fill-rule:nonzero;stroke:#33ccc2;stroke-width:4.17px;"/><path d="M653.783,176.314c1.039,-0.72 2.288,-1.652 3.748,-2.797c1.46,-1.144 2.936,-2.371 4.429,-3.679c1.492,-1.309 2.887,-2.682 4.185,-4.122c1.298,-1.439 2.32,-2.829 3.066,-4.17c0.746,-1.341 1.12,-2.6 1.12,-3.778c0,-1.177 -0.584,-2.159 -1.753,-2.944c-2.076,0 -4.347,0.082 -6.813,0.246c-2.466,0.163 -4.932,0.229 -7.398,0.196c-2.465,-0.033 -4.85,-0.246 -7.154,-0.638c-2.303,-0.393 -4.364,-1.112 -6.181,-2.159c-1.817,-1.046 -3.26,-2.535 -4.331,-4.465c-1.071,-1.929 -1.606,-4.399 -1.606,-7.408c0,-3.533 0.665,-6.722 1.995,-9.568c1.331,-2.845 3.099,-5.364 5.305,-7.555c2.206,-2.192 4.688,-4.122 7.446,-5.79c2.758,-1.668 5.532,-3.091 8.323,-4.268c1.687,0.458 3.244,1.275 4.672,2.453c1.427,1.177 2.66,2.486 3.698,3.925c-0.454,1.439 -1.346,2.551 -2.676,3.336c-1.331,0.785 -2.855,1.472 -4.575,2.061c-1.72,0.589 -3.52,1.21 -5.402,1.864c-1.882,0.655 -3.585,1.521 -5.11,2.601c-1.525,1.079 -2.807,2.486 -3.845,4.219c-1.038,1.734 -1.558,4.007 -1.558,6.82c0,2.093 0.52,3.631 1.558,4.612c1.038,0.981 2.401,1.652 4.088,2.012c1.687,0.359 3.601,0.49 5.743,0.392c2.141,-0.098 4.331,-0.245 6.57,-0.442c2.239,-0.196 4.429,-0.31 6.57,-0.343c2.142,-0.033 4.056,0.229 5.743,0.785c1.687,0.556 3.034,1.456 4.039,2.699c1.006,1.242 1.509,3.074 1.509,5.495c0,1.046 -0.341,2.387 -1.022,4.023c-0.681,1.635 -1.59,3.385 -2.725,5.25c-1.136,1.864 -2.466,3.712 -3.991,5.544c-1.525,1.831 -3.115,3.483 -4.77,4.955c-1.654,1.472 -3.309,2.682 -4.964,3.631c-1.654,0.948 -3.196,1.423 -4.623,1.423c-1.363,0 -2.255,-0.491 -2.677,-1.472c-0.422,-0.981 -0.633,-1.963 -0.633,-2.944Z" style="fill:#33ccc2;fill-rule:nonzero;stroke:#33ccc2;stroke-width:4.17px;"/><path d="M680.94,131.274c0,-0.196 0.033,-0.36 0.098,-0.491c0,-0.131 0.032,-0.294 0.097,-0.49c0.259,-0.328 0.649,-0.753 1.168,-1.276c0.519,-0.523 0.843,-0.785 0.973,-0.785l19.565,0c0,-0.72 -0.098,-1.865 -0.292,-3.435c-0.195,-1.57 -0.373,-3.303 -0.536,-5.2c-0.162,-1.897 -0.21,-3.876 -0.146,-5.937c0.065,-2.061 0.341,-3.925 0.828,-5.593c0.486,-1.668 1.265,-3.042 2.336,-4.121c1.071,-1.08 2.579,-1.62 4.526,-1.62c0,6.608 0.454,11.906 1.363,15.897c0.908,3.99 2.125,7.065 3.65,9.224c1.525,2.159 3.261,3.565 5.207,4.219c1.947,0.654 3.942,0.933 5.986,0.834c2.045,-0.098 4.04,-0.408 5.987,-0.932c1.946,-0.523 3.682,-0.883 5.207,-1.079c1.525,-0.196 2.742,-0.049 3.65,0.441c0.909,0.491 1.363,1.652 1.363,3.484c0,1.374 -0.308,2.355 -0.925,2.944c-0.616,0.588 -1.801,1.046 -3.553,1.373c-0.519,0.066 -1.378,0.18 -2.579,0.344c-1.2,0.163 -2.547,0.311 -4.039,0.441c-1.493,0.131 -3.083,0.278 -4.77,0.442c-1.687,0.164 -3.277,0.311 -4.769,0.442c-1.493,0.13 -2.856,0.212 -4.088,0.245c-1.233,0.033 -2.142,0.049 -2.726,0.049c0,0.327 -0.032,0.883 -0.097,1.668c-0.065,0.785 -0.098,1.308 -0.098,1.57c0,2.879 0.455,5.675 1.363,8.39c0.909,2.715 1.898,5.413 2.969,8.095c1.071,2.683 2.06,5.365 2.969,8.047c0.908,2.682 1.362,5.462 1.362,8.341c0,0.523 -0.048,1.063 -0.146,1.619c-0.097,0.556 -0.292,1.046 -0.584,1.472c-0.292,0.425 -0.713,0.752 -1.265,0.981c-0.552,0.229 -1.314,0.18 -2.287,-0.147c-2.466,-0.654 -4.299,-2.061 -5.5,-4.22c-1.2,-2.159 -2.093,-4.726 -2.677,-7.703c-0.584,-2.976 -0.973,-6.133 -1.168,-9.469c-0.194,-3.336 -0.503,-6.46 -0.924,-9.371c-0.422,-2.911 -1.087,-5.397 -1.996,-7.458c-0.908,-2.06 -2.368,-3.32 -4.38,-3.778l-18.786,-4.317c-0.259,0 -0.649,-0.278 -1.168,-0.834c-0.519,-0.556 -0.843,-0.965 -0.973,-1.227c-0.065,-0.131 -0.097,-0.294 -0.097,-0.49c-0.065,-0.131 -0.098,-0.328 -0.098,-0.589Z" style="fill:#33ccc2;fill-rule:nonzero;stroke:#33ccc2;stroke-width:4.17px;"/><path d="M748.669,153.45c0,-3.532 0.421,-7.065 1.265,-10.597c0.844,-3.533 2.19,-6.706 4.039,-9.519c1.85,-2.812 4.251,-5.102 7.203,-6.868c2.953,-1.767 6.538,-2.65 10.756,-2.65c2.401,0 4.51,0.442 6.327,1.325c1.817,0.883 3.342,2.044 4.575,3.483c1.233,1.44 2.157,3.124 2.774,5.054c0.616,1.93 0.924,3.941 0.924,6.035c0,3.336 -0.762,6.574 -2.287,9.714c-1.525,3.14 -3.569,5.904 -6.132,8.292c-2.563,2.388 -5.5,4.187 -8.809,5.397c-3.31,1.21 -6.684,1.488 -10.123,0.834c0.065,1.897 0.698,3.418 1.898,4.563c1.201,1.145 2.644,2.012 4.331,2.6c1.688,0.589 3.44,0.965 5.257,1.129c1.817,0.163 3.439,0.245 4.866,0.245c1.493,0 2.888,-0.131 4.186,-0.392c1.298,-0.262 2.596,-0.557 3.893,-0.884c1.298,-0.327 2.612,-0.621 3.942,-0.883c1.331,-0.261 2.742,-0.392 4.235,-0.392c0.584,0 1.168,0.032 1.752,0.098c0.584,0.065 1.135,0.212 1.654,0.441c0.519,0.229 0.941,0.589 1.266,1.08c0.324,0.49 0.486,1.096 0.486,1.815c0,1.243 -0.454,2.273 -1.362,3.091c-0.909,0.818 -2.061,1.521 -3.456,2.11c-1.395,0.589 -2.936,1.03 -4.623,1.325c-1.687,0.294 -3.326,0.523 -4.916,0.687c-1.59,0.163 -3.05,0.261 -4.38,0.294c-1.33,0.033 -2.32,0.049 -2.969,0.049c-4.153,0 -7.884,-0.671 -11.193,-2.012c-3.31,-1.341 -6.1,-3.205 -8.371,-5.593c-2.271,-2.388 -4.007,-5.266 -5.208,-8.635c-1.2,-3.369 -1.8,-7.114 -1.8,-11.236Zm10.317,-6.378c0,2.29 0.309,3.958 0.925,5.005c0.616,1.046 2.125,1.57 4.526,1.57c1.687,0 3.342,-0.311 4.964,-0.932c1.623,-0.622 3.099,-1.489 4.429,-2.601c1.33,-1.112 2.385,-2.42 3.163,-3.925c0.779,-1.505 1.169,-3.14 1.169,-4.906c0,-0.982 -0.082,-1.996 -0.244,-3.042c-0.162,-1.047 -0.503,-2.012 -1.022,-2.895c-0.519,-0.883 -1.184,-1.603 -1.995,-2.159c-0.811,-0.556 -1.866,-0.834 -3.164,-0.834c-1.946,0 -3.715,0.442 -5.304,1.325c-1.59,0.883 -2.937,2.028 -4.04,3.434c-1.103,1.407 -1.947,2.977 -2.531,4.71c-0.584,1.734 -0.876,3.484 -0.876,5.25Z" style="fill:#33ccc2;fill-rule:nonzero;stroke:#33ccc2;stroke-width:4.17px;"/></g><g><rect x="29.555" y="171.82" width="151.625" height="29.367" style="fill:#33ccc2;"/><rect x="29.555" y="136.419" width="151.625" height="29.367" style="fill:#33ccc2;"/><path d="M158.684,84.927l-19.742,6.993c0.835,2.29 1.33,4.704 1.33,7.21c0,11.419 -9.252,20.826 -20.825,20.826c-9.159,0 -16.957,-6.003 -19.742,-14.204l-70.15,24.54l151.625,0c0,-16.618 -8.169,-32.121 -22.496,-45.365Z" style="fill:#33ccc2;fill-rule:nonzero;"/><path d="M113.444,85.638c-5.044,2.29 -8.664,7.458 -8.664,13.368c0,8.077 6.622,14.668 14.667,14.668c8.045,0 14.667,-6.622 14.667,-14.668c0,-8.045 -6.498,-14.667 -14.667,-14.667c-3.837,-11.543 -15.658,-21.538 -16.246,-22.033c-1.33,-1.083 -3.249,-0.959 -4.332,0.371c-1.083,1.331 -0.959,3.249 0.372,4.333c3.372,2.754 11.294,10.706 14.203,18.628Z" style="fill:#de4573;fill-rule:nonzero;"/></g></g></g></svg>